<svg xmlns="http://www.w3.org/2000/svg" width="256" height="256" viewBox="0 0 100 100"><path d="M42.73 32.74L42.73 32.74Q42.43 32.91 42.14 33.26Q41.85 33.62 41.73 34.03Q41.61 34.44 41.70 34.79Q41.79 35.14 42.26 35.37L42.26 35.37Q42.26 36.08 41.85 36.25L41.85 36.25Q41.96 36.84 41.82 37.48Q41.67 38.13 42.02 38.54L42.02 38.54Q41.79 38.71 41.85 39.15Q41.91 39.59 41.79 39.77L41.79 39.77Q42.14 40.59 41.82 41.53Q41.50 42.46 41.61 43.58L41.61 43.58Q41.61 45.04 41.44 45.83Q41.26 46.62 41.38 47.27L41.38 47.27Q41.26 47.44 41.12 47.65Q40.97 47.85 40.62 47.85L40.62 47.85Q40.50 47.74 40.47 47.44Q40.44 47.15 40.56 47.03L40.56 47.03Q40.27 46.92 40.12 46.59Q39.97 46.27 39.88 45.92Q39.80 45.57 39.71 45.22Q39.62 44.87 39.45 44.63L39.45 44.63Q39.33 43.75 39.09 42.73Q38.86 41.70 38.51 40.88L38.51 40.88Q38.39 40.65 38.33 40.27Q38.27 39.89 38.24 39.45Q38.21 39.01 38.13 38.60Q38.04 38.19 37.75 37.89L37.75 37.89Q37.45 37.95 37.37 37.83Q37.28 37.72 37.04 37.83L37.04 37.83Q36.98 37.66 36.93 37.51Q36.87 37.37 36.87 37.19L36.87 37.19Q36.98 36.78 37.07 36.55Q37.16 36.31 37.28 36.08L37.28 36.08Q36.22 35.84 36.13 35.43Q36.05 35.02 35.99 34.38L35.99 34.38Q35.58 34.08 35.37 33.73Q35.17 33.38 34.88 33.09L34.88 33.09Q34.58 33.21 34.32 33.15Q34.05 33.09 33.94 33.38L33.94 33.38Q33.47 32.97 33.44 32.91Q33.41 32.85 33.29 32.56L33.29 32.56Q33.41 32.44 33.64 32.44Q33.88 32.44 34.00 32.39L34.00 32.39Q33.76 31.74 33.12 31.51Q32.47 31.27 32.12 30.74L32.12 30.74Q31.89 30.45 31.65 30.22Q31.42 29.98 31.18 29.78Q30.95 29.57 30.66 29.46Q30.36 29.34 29.95 29.46L29.95 29.46Q29.84 29.28 29.66 29.13Q29.48 28.99 29.37 28.87L29.37 28.87Q28.43 29.05 27.61 28.99Q26.79 28.93 26.20 29.05L26.20 29.05Q26.20 29.51 26.20 29.87Q26.20 30.22 25.97 30.51L25.97 30.51Q26.14 30.86 26.23 31.04Q26.32 31.21 26.03 31.27L26.03 31.27Q26.20 31.39 26.26 31.71Q26.32 32.03 26.44 32.21L26.44 32.21Q26.14 32.50 26.35 32.94Q26.55 33.38 26.55 33.79L26.55 33.79Q26.96 34.38 26.73 34.61Q26.50 34.85 26.61 35.43L26.61 35.43Q26.73 36.72 26.67 37.40Q26.61 38.07 26.73 38.83L26.73 38.83Q26.67 39.36 26.70 39.80Q26.73 40.24 26.50 40.41L26.50 40.41Q26.73 41.00 26.55 41.56Q26.38 42.11 26.67 42.46L26.67 42.46Q26.61 43.46 26.67 44.31Q26.73 45.16 26.61 45.86L26.61 45.86Q26.91 46.04 26.96 46.45Q27.02 46.86 27.26 47.09L27.26 47.09Q26.73 47.33 26.70 47.97Q26.67 48.62 26.44 48.91L26.44 48.91Q26.73 49.20 26.61 49.67Q26.50 50.14 26.38 50.43L26.38 50.43Q26.61 50.67 26.50 50.96Q26.38 51.25 26.38 51.43L26.38 51.43Q26.44 51.66 26.55 51.78Q26.67 51.90 26.73 52.01L26.73 52.01Q26.67 52.25 26.55 52.37Q26.44 52.48 26.32 52.66L26.32 52.66Q26.26 53.19 26.50 53.39Q26.73 53.60 26.79 54.06L26.79 54.06Q26.50 54.89 26.14 55.12L26.14 55.12Q26.03 55.65 26.12 55.85Q26.20 56.06 26.20 56.58L26.20 56.58Q26.50 57.11 26.29 57.32Q26.09 57.52 26.20 57.81L26.20 57.81Q26.96 57.99 26.82 58.23Q26.67 58.46 26.44 58.72Q26.20 58.99 26.00 59.25Q25.79 59.51 25.79 59.81L25.79 59.81Q25.79 60.16 26.06 60.31Q26.32 60.45 26.03 60.86L26.03 60.86Q26.61 60.57 26.67 60.72Q26.73 60.86 26.91 60.92L26.91 60.92Q26.50 61.39 26.17 62.03Q25.85 62.68 26.32 63.21L26.32 63.21Q26.14 63.62 26.26 64.03Q26.38 64.44 26.55 64.67L26.55 64.67Q26.32 65.49 26.41 65.67Q26.50 65.84 26.44 66.14L26.44 66.14Q26.20 66.49 26.38 66.69Q26.55 66.90 26.20 67.01L26.20 67.01Q26.38 67.48 26.32 68.19Q26.26 68.89 26.55 69.36L26.55 69.36Q27.02 69.83 27.67 70.27Q28.31 70.71 29.37 70.35L29.37 70.35Q30.66 71.00 31.95 71.03Q33.23 71.06 34.58 71.06L34.58 71.06Q34.76 71.17 34.90 71.35Q35.05 71.53 35.05 71.88L35.05 71.88Q34.76 71.94 34.46 72.23L34.46 72.23Q34.29 72.17 34.17 72.46Q34.05 72.76 33.94 72.99L33.94 72.99Q33.18 73.05 32.62 72.87Q32.06 72.70 31.48 72.99L31.48 72.99Q31.13 72.81 30.54 72.64Q29.95 72.46 29.60 72.76L29.60 72.76Q28.61 72.52 27.55 72.61Q26.50 72.70 25.32 72.81L25.32 72.81Q24.50 72.64 23.86 72.64Q23.21 72.64 22.51 72.70L22.51 72.70Q21.52 72.52 20.55 72.55Q19.58 72.58 18.64 72.81L18.64 72.81Q17.88 72.64 17.15 72.61Q16.42 72.58 15.48 72.52L15.48 72.52Q14.43 72.40 13.72 72.40Q13.02 72.40 12.32 72.35Q11.61 72.29 10.91 72.29Q10.21 72.29 9.56 72.46L9.56 72.46Q8.92 72.29 8.21 72.40Q7.51 72.52 6.63 72.40L6.63 72.40Q6.75 71.47 7.16 71.32Q7.57 71.17 8.04 71.17Q8.51 71.17 8.98 71.20Q9.45 71.23 9.91 71.23L9.91 71.23Q10.56 71.23 11.17 71.06Q11.79 70.88 12.32 71.17L12.32 71.17Q13.37 70.94 13.87 70.88Q14.37 70.82 14.72 70.59L14.72 70.59Q15.36 70.30 15.98 69.42Q16.59 68.54 17.12 68.13L17.12 68.13Q17.24 67.83 17.03 67.78Q16.83 67.72 16.77 67.54L16.77 67.54Q16.83 67.25 16.92 67.01Q17.00 66.78 16.77 66.49L16.77 66.49Q16.83 65.84 17.06 65.58Q17.30 65.31 17.47 65.02L17.47 65.02Q17.47 64.26 17.56 63.65Q17.65 63.03 17.18 62.62L17.18 62.62Q17.53 61.80 17.56 61.45Q17.59 61.10 17.71 60.69L17.71 60.69Q17.00 59.92 17.30 59.48Q17.59 59.05 17.59 58.46L17.59 58.46Q17.59 57.81 17.56 57.20Q17.53 56.58 17.41 56.00L17.41 56.00Q17.65 55.59 17.30 55.35L17.30 55.35Q16.77 55.41 16.48 55.41L16.48 55.41Q16.59 55.06 16.92 54.91Q17.24 54.77 17.41 54.48L17.41 54.48Q17.36 54.06 17.41 53.68Q17.47 53.30 17.47 52.83L17.47 52.83Q17.24 51.72 17.56 50.99Q17.88 50.26 17.47 49.44L17.47 49.44Q16.83 49.44 16.77 49.26Q16.71 49.08 16.77 48.79L16.77 48.79Q17.00 48.21 17.18 48.09Q17.36 47.97 17.47 47.74L17.47 47.74Q17.41 47.27 17.36 46.86Q17.30 46.45 16.83 46.39L16.83 46.39Q16.54 45.86 16.74 45.54Q16.95 45.22 17.30 44.98L17.30 44.98Q17.36 44.34 17.06 43.93Q16.77 43.52 16.77 42.99L16.77 42.99Q17.12 42.76 17.09 42.17Q17.06 41.58 16.83 41.23L16.83 41.23Q17.06 40.94 16.89 40.53Q16.71 40.12 16.89 39.89L16.89 39.89Q16.30 39.71 16.24 39.56Q16.18 39.42 16.18 39.24L16.18 39.24Q16.24 38.71 16.56 38.42Q16.89 38.13 16.83 37.54L16.83 37.54Q16.18 37.83 16.15 37.69Q16.13 37.54 15.95 37.48L15.95 37.48Q16.36 37.01 16.13 37.04Q15.89 37.07 15.95 36.84L15.95 36.84Q16.30 36.78 16.39 36.63Q16.48 36.49 16.36 36.25L16.36 36.25Q17.00 35.37 16.83 35.05Q16.65 34.73 16.48 34.44L16.48 34.44Q16.77 33.97 16.86 33.32Q16.95 32.68 16.48 32.39L16.48 32.39Q16.65 31.51 16.74 30.83Q16.83 30.16 16.71 29.46L16.71 29.46Q15.19 29.34 13.78 29.43Q12.38 29.51 11.14 29.98L11.14 29.98Q11.14 30.39 10.91 30.57Q10.68 30.74 10.62 31.15L10.62 31.15Q10.32 31.04 10.18 31.18Q10.03 31.33 9.91 31.21L9.91 31.21Q9.68 31.74 9.09 31.92Q8.51 32.09 8.51 32.68L8.51 32.68Q8.21 32.68 8.07 32.80Q7.92 32.91 7.80 33.09Q7.69 33.26 7.60 33.41Q7.51 33.56 7.28 33.62L7.28 33.62Q7.28 34.26 6.87 34.76Q6.46 35.26 6.34 35.96L6.34 35.96Q6.63 36.25 6.46 36.37Q6.28 36.49 6.16 36.66L6.16 36.66Q6.05 37.19 5.96 37.22Q5.87 37.25 5.64 37.25L5.64 37.25Q5.23 38.07 4.99 39.12Q4.76 40.18 4.23 41.00L4.23 41.00Q3.82 41.88 3.88 42.58Q3.94 43.28 3.64 43.93L3.64 43.93Q3.18 44.63 3.18 45.04Q3.18 45.45 3.06 45.80L3.06 45.80Q2.77 46.51 2.80 46.80Q2.82 47.09 2.41 47.15L2.41 47.15Q2.24 47.09 2.18 46.95Q2.12 46.80 1.95 46.68L1.95 46.68Q2.47 44.98 2.85 43.11Q3.23 41.23 3.88 39.71L3.88 39.71Q4.00 39.53 4.11 39.42Q4.23 39.30 4.23 39.01L4.23 39.01Q3.64 38.71 3.76 38.63Q3.88 38.54 3.88 38.36L3.88 38.36Q4.29 38.30 4.29 38.04Q4.29 37.78 4.64 37.66L4.64 37.66Q4.29 37.07 4.41 37.07Q4.52 37.07 4.64 36.96L4.64 36.96Q4.35 36.84 4.20 37.04Q4.05 37.25 3.76 37.25L3.76 37.25Q3.12 37.72 3.32 37.78Q3.53 37.83 3.47 37.95L3.47 37.95Q3.18 38.13 3.00 38.01Q2.82 37.89 2.59 37.89L2.59 37.89Q2.65 38.42 2.38 38.60Q2.12 38.77 1.71 39.01L1.71 39.01Q1.42 39.83 1.56 40.53Q1.71 41.23 1.71 41.99L1.71 41.99Q1.71 42.52 1.51 43.25Q1.30 43.99 1.77 44.51L1.77 44.51Q1.54 45.16 1.68 45.74Q1.83 46.33 1.77 47.09L1.77 47.09L1.18 47.39Q0.89 46.98 0.98 46.51Q1.07 46.04 0.71 45.74L0.71 45.74Q0.89 44.46 0.80 43.25Q0.71 42.05 0.66 40.82L0.66 40.82Q0.66 40.59 0.71 40.38Q0.77 40.18 0.77 40.00L0.77 40.00Q0.89 39.36 0.80 38.54Q0.71 37.72 0.89 37.01L0.89 37.01Q1.01 36.78 1.01 36.43Q1.01 36.08 0.89 35.73L0.89 35.73Q0.36 35.49 0.22 35.61Q0.07 35.73-0.05 35.73L-0.05 35.73Q0.19 35.26 0.28 35.20Q0.36 35.14 0.54 35.14L0.54 35.14Q0.30 34.85 0.54 34.64Q0.77 34.44 0.89 34.08L0.89 34.08Q0.66 33.56 0.77 33.53Q0.89 33.50 0.95 33.38L0.95 33.38Q1.18 32.56 1.01 31.10Q0.83 29.63 0.54 28.46L0.54 28.46Q0.83 28.40 1.27 28.37Q1.71 28.34 1.77 28.58L1.77 28.58Q1.89 28.40 2.41 28.28L2.41 28.28Q2.82 28.40 3.29 28.40Q3.76 28.40 4.17 28.37Q4.58 28.34 4.93 28.23Q5.29 28.11 5.52 27.81L5.52 27.81Q5.81 28.11 6.28 28.23Q6.75 28.34 7.31 28.31Q7.86 28.28 8.39 28.17Q8.92 28.05 9.27 27.93L9.27 27.93Q10.91 28.11 11.91 28.11Q12.90 28.11 13.96 28.23L13.96 28.23Q14.43 27.99 14.87 28.02Q15.30 28.05 15.71 28.17Q16.13 28.28 16.54 28.34Q16.95 28.40 17.36 28.17L17.36 28.17Q17.88 28.23 18.26 28.28Q18.64 28.34 18.88 28.23L18.88 28.23Q19.46 28.23 19.93 28.23Q20.40 28.23 20.90 28.28Q21.40 28.34 21.84 28.25Q22.28 28.17 22.51 27.81L22.51 27.81Q23.21 28.23 23.80 28.11Q24.39 27.99 24.97 27.87L24.97 27.87Q25.32 27.81 25.68 27.90Q26.03 27.99 26.32 27.93L26.32 27.93Q26.79 27.87 27.14 27.64Q27.49 27.40 27.96 27.87L27.96 27.87Q28.61 27.81 29.25 27.87Q29.89 27.93 30.45 27.96Q31.01 27.99 31.54 27.90Q32.06 27.81 32.41 27.52L32.41 27.52Q32.88 27.64 32.97 27.67Q33.06 27.70 33.12 27.93L33.12 27.93Q34.29 27.52 34.90 27.40Q35.52 27.29 36.16 26.99L36.16 26.99Q36.46 27.11 36.78 27.26Q37.10 27.40 37.22 27.70L37.22 27.70Q37.86 27.58 38.68 27.73Q39.50 27.87 40.15 27.93L40.15 27.93Q40.38 27.52 40.73 27.52Q41.09 27.52 41.38 27.79Q41.67 28.05 41.76 28.43Q41.85 28.81 41.50 29.22L41.50 29.22Q41.73 29.51 41.55 29.75Q41.38 29.98 41.61 30.28L41.61 30.28Q41.91 30.10 42.23 30.10Q42.55 30.10 42.61 30.33L42.61 30.33Q42.67 30.63 42.46 30.57Q42.26 30.51 42.08 30.74L42.08 30.74Q41.91 30.92 41.88 31.24Q41.85 31.56 41.55 31.74L41.55 31.74Q41.55 32.03 41.88 31.98Q42.20 31.92 42.26 32.21L42.26 32.21Q42.67 32.27 42.64 32.36Q42.61 32.44 42.73 32.74ZM3.53 39.77L3.53 39.77Q3.35 39.94 3.18 40.00Q3.00 40.06 3.06 40.30L3.06 40.30Q2.88 40.06 3.03 39.89Q3.18 39.71 3.53 39.77ZM40.73 28.81L40.73 28.81Q40.44 28.69 40.30 28.69Q40.15 28.69 39.91 28.52L39.91 28.52Q39.80 28.75 39.33 28.58Q38.86 28.40 38.68 28.69L38.68 28.69Q38.39 29.46 37.92 29.81Q37.45 30.16 36.81 30.28L36.81 30.28Q36.34 30.45 36.05 30.63L36.05 30.63Q35.81 30.92 35.67 31.13Q35.52 31.33 35.23 31.51L35.23 31.51Q35.52 31.80 35.96 31.71Q36.40 31.62 36.63 31.74L36.63 31.74Q36.93 31.15 37.19 30.95Q37.45 30.74 37.92 30.80L37.92 30.80Q38.04 30.10 38.42 29.98Q38.80 29.87 39.09 30.04L39.09 30.04Q39.15 29.75 39.59 29.75Q40.03 29.75 39.86 29.46L39.86 29.46Q40.32 29.28 40.56 29.22Q40.79 29.16 40.73 28.81ZM39.04 30.57L39.04 30.57Q38.86 30.69 38.65 30.60Q38.45 30.51 38.21 30.63L38.21 30.63Q38.68 30.98 38.89 30.89Q39.09 30.80 39.04 30.57ZM40.44 33.79L40.44 33.79Q40.32 33.50 40.21 33.47Q40.09 33.44 39.94 33.47Q39.80 33.50 39.59 33.56Q39.39 33.62 39.15 33.56L39.15 33.56Q39.33 33.85 39.74 33.79Q40.15 33.73 40.44 33.79ZM37.34 28.93L37.34 28.93Q36.81 28.46 36.43 28.61Q36.05 28.75 35.72 28.96Q35.40 29.16 35.08 29.40Q34.76 29.63 34.41 29.63L34.41 29.63Q34.17 30.04 33.70 30.22L33.70 30.22Q34.00 30.63 34.17 30.54Q34.35 30.45 34.58 30.57L34.58 30.57Q35.17 29.87 35.52 29.92L35.52 29.92Q35.99 29.51 36.34 29.22Q36.69 28.93 37.34 28.93ZM38.04 31.21L38.04 31.21Q37.86 31.04 37.69 31.21Q37.51 31.39 37.34 31.27L37.34 31.27Q36.81 31.74 36.78 31.86Q36.75 31.98 36.63 32.09L36.63 32.09Q36.46 31.98 36.31 32.00Q36.16 32.03 35.99 32.09L35.99 32.09Q35.99 32.39 35.87 32.44Q35.75 32.50 35.81 32.80L35.81 32.80Q36.69 32.56 36.75 32.09L36.75 32.09Q37.04 32.09 37.19 31.80Q37.34 31.51 37.63 31.86L37.63 31.86Q37.57 31.56 37.78 31.51Q37.98 31.45 38.04 31.21ZM41.03 35.14L41.03 35.14Q41.09 34.73 40.82 34.61Q40.56 34.49 40.27 34.38L40.27 34.38Q40.21 34.96 40.03 34.93Q39.86 34.90 39.74 35.02L39.74 35.02Q39.33 35.31 38.92 35.40Q38.51 35.49 38.39 35.08L38.39 35.08Q38.57 35.08 38.74 35.05Q38.92 35.02 39.04 34.90L39.04 34.90Q39.68 34.67 39.68 34.79Q39.68 34.90 39.86 34.85L39.86 34.85Q39.97 34.49 39.68 34.58Q39.39 34.67 39.33 34.44L39.33 34.44Q39.04 34.38 38.83 34.35Q38.63 34.32 38.39 34.44L38.39 34.44Q38.51 34.67 38.27 34.79Q38.04 34.90 38.04 35.20L38.04 35.20Q38.39 35.73 38.65 35.64Q38.92 35.55 39.15 35.67L39.15 35.67Q39.27 36.37 39.36 36.34Q39.45 36.31 39.50 36.19Q39.56 36.08 39.65 35.90Q39.74 35.73 39.86 35.73L39.86 35.73Q40.09 35.73 40.27 35.75Q40.44 35.78 40.56 35.78L40.56 35.78Q40.73 35.31 40.82 35.26Q40.91 35.20 41.03 35.14ZM34.58 28.69L34.58 28.69Q33.82 28.75 33.18 28.78Q32.53 28.81 32.36 29.51L32.36 29.51Q32.65 29.57 32.74 29.75Q32.82 29.92 33.12 30.04L33.12 30.04Q33.41 29.46 33.91 29.37Q34.41 29.28 34.58 28.69ZM40.38 36.25L40.38 36.25Q39.68 36.55 39.39 36.84Q39.09 37.13 38.68 37.42L38.68 37.42Q38.80 38.07 39.09 38.19L39.09 38.19Q40.03 37.60 40.38 36.25ZM41.03 37.19L41.03 37.19Q40.91 37.72 40.15 38.01L40.15 38.01Q40.15 38.60 39.88 38.71Q39.62 38.83 39.33 39.01L39.33 39.01Q39.56 39.24 39.50 39.45Q39.45 39.65 39.45 39.83L39.45 39.83Q39.80 39.77 40.00 39.68Q40.21 39.59 40.50 39.71L40.50 39.71Q41.26 38.95 41.23 38.24Q41.20 37.54 41.03 37.19ZM40.79 40.41L40.79 40.41Q40.03 40.59 39.68 41.12Q39.33 41.64 39.74 42.46L39.74 42.46Q40.15 42.76 40.50 42.29L40.50 42.29Q40.32 41.88 40.71 41.38Q41.09 40.88 40.79 40.41ZM40.91 43.28L40.91 43.28Q40.44 43.40 40.56 43.61Q40.68 43.81 40.56 43.93L40.56 43.93Q40.15 44.05 40.30 44.51Q40.44 44.98 40.73 45.22L40.73 45.22Q40.91 44.87 40.97 44.31Q41.03 43.75 40.91 43.28ZM22.69 29.75L22.98 29.75Q22.51 29.63 22.10 29.78Q21.69 29.92 21.40 29.98L21.40 29.98Q21.52 29.63 21.81 29.63Q22.10 29.63 22.39 29.51L22.39 29.51L21.52 28.99Q20.87 29.81 19.88 30.25Q18.88 30.69 18.23 31.45L18.23 31.45Q18.29 31.80 18.06 32.00Q17.82 32.21 17.68 32.47Q17.53 32.74 17.62 32.97Q17.71 33.21 18.06 33.32L18.06 33.32Q18.76 32.68 19.05 32.33Q19.35 31.98 19.82 31.74L19.82 31.74Q19.93 32.15 19.99 31.77Q20.05 31.39 20.52 31.51L20.52 31.51Q20.81 31.15 20.96 31.07Q21.11 30.98 21.22 30.86Q21.34 30.74 21.46 30.69Q21.57 30.63 21.75 30.69L21.75 30.69Q21.87 30.33 22.25 30.28Q22.63 30.22 22.69 29.75L22.69 29.75ZM20.40 28.99L20.40 28.99Q19.64 29.16 19.03 29.05Q18.41 28.93 17.71 29.16L17.71 29.16Q17.41 29.51 17.50 29.95Q17.59 30.39 17.53 30.98L17.53 30.98Q18.41 30.80 19.14 30.25Q19.88 29.69 20.40 28.99ZM25.44 29.05L25.44 29.05Q25.15 28.87 24.91 28.90Q24.68 28.93 24.33 28.87L24.33 28.87Q24.09 29.28 23.89 29.69Q23.68 30.10 23.04 30.16L23.04 30.16Q22.86 30.45 22.63 30.74Q22.39 31.04 21.75 30.92L21.75 30.92Q21.57 31.39 21.28 31.36Q20.99 31.33 20.70 31.45L20.70 31.45Q20.11 32.03 19.55 32.62Q19.00 33.21 18.12 33.56L18.12 33.56Q18.06 33.85 18.23 33.88Q18.41 33.91 18.41 34.20L18.41 34.20Q18.23 34.44 18.03 34.58Q17.82 34.73 17.71 35.02L17.71 35.02Q18.23 34.79 18.70 34.32L18.70 34.32Q19.11 34.79 18.88 34.93Q18.64 35.08 18.53 35.43L18.53 35.43Q18.12 35.31 18.00 35.46Q17.88 35.61 17.65 35.67L17.65 35.67Q18.00 36.08 17.94 36.11Q17.88 36.14 18.00 36.25L18.00 36.25Q18.18 36.25 18.35 36.19Q18.53 36.14 18.70 36.25L18.70 36.25Q18.53 36.37 18.29 36.55Q18.06 36.72 17.91 36.96Q17.77 37.19 17.77 37.42Q17.77 37.66 18.06 37.83L18.06 37.83Q18.18 37.72 18.23 37.57Q18.29 37.42 18.53 37.31L18.53 37.31Q19.00 37.01 19.05 36.96Q19.11 36.90 19.23 36.90L19.23 36.90Q19.70 37.48 19.76 37.37L19.76 37.37Q20.11 37.01 20.46 37.01L20.46 37.01Q20.52 36.72 20.29 36.69Q20.05 36.66 19.93 36.55L19.93 36.55Q19.82 37.13 19.41 37.19L19.41 37.19Q19.11 36.90 19.26 36.69Q19.41 36.49 19.82 36.55L19.82 36.55Q19.58 36.43 19.64 36.11Q19.70 35.78 20.11 35.84L20.11 35.84Q20.29 36.14 20.37 36.02Q20.46 35.90 20.75 36.02L20.75 36.02Q21.22 35.78 21.34 35.49L21.34 35.49Q21.98 34.96 21.93 34.44L21.93 34.44Q22.10 34.44 22.22 34.32Q22.34 34.20 22.57 34.32L22.57 34.32Q21.87 34.32 21.84 34.20Q21.81 34.08 21.75 33.97L21.75 33.97Q22.10 33.85 22.31 33.62Q22.51 33.38 22.98 33.32L22.98 33.32Q23.33 33.09 23.36 33.00Q23.39 32.91 23.51 32.80L23.51 32.80Q24.04 32.27 24.50 32.12Q24.97 31.98 25.38 31.74L25.38 31.74Q25.50 31.04 25.41 30.36Q25.32 29.69 25.44 29.05ZM22.75 35.26L22.75 35.26Q22.39 35.14 22.25 35.20Q22.10 35.26 21.98 35.37L21.98 35.37Q22.10 35.67 22.39 35.64Q22.69 35.61 22.75 35.26ZM25.44 41.12L26.03 41.17Q25.85 40.82 25.94 40.59Q26.03 40.35 26.03 39.89L26.03 39.89Q25.32 40.12 25.35 40.00Q25.38 39.89 25.27 39.89L25.27 39.89Q24.68 39.53 24.56 39.62Q24.45 39.71 24.33 39.59L24.33 39.59Q24.86 39.48 24.97 39.59Q25.09 39.71 25.27 39.77L25.27 39.77Q25.27 39.42 25.38 39.27Q25.50 39.12 25.38 38.83L25.38 38.83Q25.62 38.65 25.76 38.63Q25.91 38.60 26.03 38.54L26.03 38.54Q25.91 38.24 26.03 37.75Q26.14 37.25 25.68 37.25L25.68 37.25Q25.03 37.83 24.97 37.66Q24.91 37.48 24.74 37.60L24.74 37.60Q24.80 38.07 24.56 38.24Q24.33 38.42 24.09 38.36L24.09 38.36Q23.80 37.89 23.98 37.89Q24.15 37.89 24.21 37.66L24.21 37.66Q24.80 37.42 25.03 37.40Q25.27 37.37 25.44 37.19L25.44 37.19Q25.03 37.13 24.74 37.16Q24.45 37.19 24.04 37.31L24.04 37.31Q23.92 36.78 23.98 36.66Q24.04 36.55 24.27 36.66L24.27 36.66Q24.50 37.19 24.65 37.04Q24.80 36.90 24.97 37.01L24.97 37.01Q25.21 36.49 25.09 36.43Q24.97 36.37 24.97 36.19L24.97 36.19Q25.27 36.08 25.47 36.08Q25.68 36.08 26.03 36.02L26.03 36.02Q26.09 35.55 25.68 35.26L25.68 35.26Q25.32 35.73 24.97 35.61L24.97 35.61Q24.86 35.84 24.86 35.93Q24.86 36.02 24.68 36.19L24.68 36.19Q24.56 35.78 24.91 35.49Q25.27 35.20 25.32 34.85L25.32 34.85Q25.38 34.61 25.15 34.55Q24.91 34.49 24.62 34.67L24.62 34.67Q24.56 34.38 24.74 34.35Q24.91 34.32 25.09 34.32Q25.27 34.32 25.44 34.32Q25.62 34.32 25.68 34.20L25.68 34.20Q25.32 34.08 25.50 33.73Q25.68 33.38 25.44 33.15L25.44 33.15Q24.97 33.26 24.74 33.59Q24.50 33.91 23.92 33.85L23.92 33.85Q23.92 34.14 23.74 34.29Q23.57 34.44 23.36 34.52Q23.16 34.61 22.98 34.70Q22.80 34.79 22.75 35.02L22.75 35.02Q23.27 35.08 23.42 35.20Q23.57 35.31 23.45 35.43L23.45 35.43Q22.86 35.73 22.83 35.75Q22.80 35.78 22.69 35.67L22.69 35.67Q22.22 35.84 22.16 35.93Q22.10 36.02 21.98 36.08L21.98 36.08Q21.46 35.84 21.40 36.02Q21.34 36.19 21.16 36.25L21.16 36.25Q20.70 36.25 20.58 36.25Q20.46 36.25 20.40 36.31L20.40 36.31Q20.46 36.66 20.72 36.66Q20.99 36.66 21.11 36.43L21.11 36.43Q21.16 36.78 21.08 36.87Q20.99 36.96 20.84 37.01Q20.70 37.07 20.55 37.10Q20.40 37.13 20.34 37.31L20.34 37.31Q19.93 37.60 19.79 37.78Q19.64 37.95 19.23 37.89L19.23 37.89Q18.47 38.48 18.09 38.80Q17.71 39.12 17.71 39.89L17.71 39.89Q18.18 39.77 18.73 39.53Q19.29 39.30 19.58 39.59L19.58 39.59Q19.88 39.06 20.11 38.95L20.11 38.95L20.93 38.60Q21.05 38.30 21.08 38.22Q21.11 38.13 21.11 37.95L21.11 37.95Q21.87 37.78 22.10 37.57Q22.34 37.37 22.34 37.25L22.34 37.25Q22.69 37.07 22.83 36.87Q22.98 36.66 23.39 36.55L23.39 36.55Q23.57 36.55 23.63 36.75Q23.68 36.96 23.74 37.25L23.74 37.25Q23.57 37.31 23.33 37.31Q23.10 37.31 23.04 37.54L23.04 37.54Q22.75 38.19 22.51 38.24Q22.28 38.30 22.22 38.54L22.22 38.54Q22.10 38.24 21.75 38.39Q21.40 38.54 21.28 38.71L21.28 38.71Q20.87 39.18 20.75 39.21Q20.64 39.24 20.58 39.36L20.58 39.36Q20.75 39.42 20.90 39.21Q21.05 39.01 21.22 39.24L21.22 39.24Q20.34 39.83 19.52 40.38Q18.70 40.94 17.77 41.47L17.77 41.47Q17.77 41.99 17.88 42.20Q18.00 42.40 18.18 42.64L18.18 42.64Q18.29 42.29 18.47 42.29Q18.64 42.29 18.76 42.35L18.76 42.35Q18.88 42.11 19.08 41.82Q19.29 41.53 19.52 41.23L19.52 41.23Q20.17 40.88 20.20 40.97Q20.23 41.06 20.34 41.06L20.34 41.06Q20.64 40.71 20.75 40.68Q20.87 40.65 21.05 40.82L21.05 40.82Q20.75 40.35 20.64 40.24L20.64 40.24Q20.87 40.18 20.99 40.06Q21.11 39.94 21.22 39.89L21.22 39.89Q21.40 39.65 21.43 39.48Q21.46 39.30 21.69 39.24L21.69 39.24Q21.98 39.48 22.45 39.65L22.45 39.65Q22.45 39.18 22.66 39.15Q22.86 39.12 22.98 39.24L22.98 39.24Q22.80 38.95 22.95 38.80Q23.10 38.65 23.04 38.36L23.04 38.36Q23.21 38.83 23.27 39.15Q23.33 39.48 23.57 39.24L23.57 39.24Q23.57 40.24 23.04 40.50Q22.51 40.76 22.10 40.88L22.10 40.88Q22.16 41.00 21.93 41.15Q21.69 41.29 21.40 41.17L21.40 41.17Q21.28 41.53 21.11 41.76Q20.93 41.99 20.52 41.99L20.52 41.99Q20.40 42.29 20.14 42.38Q19.88 42.46 19.70 42.70L19.70 42.70Q19.29 42.87 18.97 43.11Q18.64 43.34 18.38 43.61Q18.12 43.87 18.03 44.16Q17.94 44.46 18.29 44.81L18.29 44.81Q18.35 44.40 18.44 44.28Q18.53 44.16 18.70 44.05L18.70 44.05Q19.29 44.57 19.52 44.22L19.52 44.22Q19.64 43.93 19.76 43.81Q19.88 43.69 20.17 43.93L20.17 43.93Q21.05 43.93 21.34 43.66Q21.63 43.40 21.40 43.17L21.40 43.17Q21.22 42.76 21.16 42.64Q21.11 42.52 21.16 42.40L21.16 42.40Q21.63 42.17 21.72 42.20Q21.81 42.23 22.16 42.29L22.16 42.29Q22.63 42.23 23.04 42.32Q23.45 42.40 23.74 42.17L23.74 42.17Q23.86 41.47 24.39 41.44Q24.91 41.41 25.44 41.12L25.44 41.12ZM23.39 40.00L23.39 40.00Q22.80 40.00 22.75 40.00L22.75 40.00Q22.22 40.30 22.16 40.21Q22.10 40.12 21.93 40.18L21.93 40.18Q22.28 40.47 22.60 40.38Q22.92 40.30 23.39 40.00ZM19.11 37.89L19.11 37.89Q18.82 38.07 18.56 37.95Q18.29 37.83 18.23 38.13L18.23 38.13Q18.88 38.13 19.11 37.89ZM25.79 43.52L25.79 43.52Q25.91 43.23 25.79 42.96Q25.68 42.70 25.79 42.40L25.79 42.40Q25.50 42.35 25.41 42.32Q25.32 42.29 25.09 42.40L25.09 42.40Q24.91 42.81 24.77 43.02Q24.62 43.23 24.33 43.34L24.33 43.34Q23.80 43.46 23.74 43.49Q23.68 43.52 23.57 43.58L23.57 43.58Q23.21 44.28 22.89 44.43Q22.57 44.57 22.45 44.98L22.45 44.98Q22.80 44.87 23.07 44.72Q23.33 44.57 23.68 44.75L23.68 44.75Q23.68 44.34 24.01 44.43Q24.33 44.51 24.39 44.16L24.39 44.16Q24.62 43.99 24.94 43.69Q25.27 43.40 25.79 43.52ZM23.27 43.05L23.51 42.76Q23.21 42.87 23.13 42.76Q23.04 42.64 22.86 42.58L22.86 42.58Q22.86 42.70 22.86 42.90Q22.86 43.11 22.69 43.23L22.69 43.23Q22.22 43.40 22.07 43.40Q21.93 43.40 21.93 43.52L21.93 43.52Q22.22 43.58 22.54 43.55Q22.86 43.52 22.98 43.81L22.98 43.81Q22.92 42.99 23.04 43.02Q23.16 43.05 23.27 43.05L23.27 43.05ZM20.99 41.35L20.99 41.35Q20.75 41.17 20.52 41.20Q20.29 41.23 20.29 41.47L20.29 41.47Q20.52 41.47 20.67 41.50Q20.81 41.53 20.99 41.35ZM18.70 40.53L18.76 40.24Q18.59 40.47 18.32 40.30Q18.06 40.12 17.94 40.30L17.94 40.30Q18.47 40.65 18.53 40.59Q18.59 40.53 18.70 40.53L18.70 40.53ZM22.39 45.28L22.75 45.16Q22.16 45.28 21.90 45.28Q21.63 45.28 21.57 45.45L21.57 45.45Q22.22 45.63 22.25 45.48Q22.28 45.33 22.39 45.28L22.39 45.28ZM23.04 45.69L23.04 45.69Q22.51 45.92 22.45 45.89Q22.39 45.86 22.28 45.86L22.28 45.86Q22.28 46.45 22.60 46.21Q22.92 45.98 23.04 45.69ZM21.93 44.22L22.34 44.40Q22.39 43.81 22.31 43.75Q22.22 43.69 22.04 43.72Q21.87 43.75 21.69 43.84Q21.52 43.93 21.52 44.05L21.52 44.05Q21.22 43.93 21.02 44.19Q20.81 44.46 20.46 44.51L20.46 44.51Q20.05 45.04 19.90 45.04Q19.76 45.04 19.70 45.16L19.70 45.16Q19.23 45.69 18.67 46.01Q18.12 46.33 18.23 47.09L18.23 47.09Q18.53 47.09 18.62 46.98Q18.70 46.86 18.82 46.68L18.82 46.68Q19.05 46.98 19.08 46.71Q19.11 46.45 19.46 46.51L19.46 46.51Q19.82 46.21 19.82 46.10Q19.82 45.98 19.93 45.86L19.93 45.86Q20.29 45.63 20.37 45.51Q20.46 45.39 20.58 45.33L20.58 45.33Q20.75 45.51 20.84 45.51Q20.93 45.51 21.22 45.69L21.22 45.69Q21.52 45.22 21.52 45.10Q21.52 44.98 21.69 45.04L21.69 45.04Q21.75 44.98 21.49 45.01Q21.22 45.04 21.05 45.16L21.05 45.16Q21.05 44.69 21.37 44.57Q21.69 44.46 21.93 44.22L21.93 44.22ZM6.46 31.74L6.46 31.74Q6.11 31.33 5.99 31.39Q5.87 31.45 5.64 31.45L5.64 31.45Q6.05 31.86 6.13 31.65Q6.22 31.45 6.46 31.74ZM6.52 32.09L6.52 32.09Q6.40 31.92 6.05 31.89Q5.70 31.86 5.70 32.15L5.70 32.15Q5.99 32.09 6.52 32.09ZM7.45 29.81L7.45 29.81Q6.81 29.57 6.69 29.46L6.69 29.46Q6.16 29.63 5.84 29.92Q5.52 30.22 5.05 30.28L5.05 30.28Q5.17 30.57 4.85 30.66Q4.52 30.74 4.41 30.69L4.41 30.69Q4.29 31.04 4.20 31.10Q4.11 31.15 3.82 31.10L3.82 31.10Q3.70 31.33 3.56 31.54Q3.41 31.74 3.06 31.86L3.06 31.86Q2.71 31.86 2.41 31.92L2.41 31.92Q2.30 31.62 2.09 31.74Q1.89 31.86 1.89 31.45L1.89 31.45Q2.18 31.51 2.38 31.45Q2.59 31.39 2.82 31.33L2.82 31.33Q2.59 30.86 2.94 30.63Q3.29 30.39 3.64 30.10L3.64 30.10Q3.47 29.98 3.29 30.10Q3.12 30.22 3.00 30.10L3.00 30.10Q3.00 29.81 3.23 29.78Q3.47 29.75 3.47 29.46L3.47 29.46Q3.06 29.40 2.53 29.48Q2.00 29.57 1.71 29.69L1.71 29.69Q1.65 29.98 1.74 30.13Q1.83 30.28 1.95 30.51L1.95 30.51Q1.77 30.69 1.68 31.04Q1.59 31.39 1.59 31.77Q1.59 32.15 1.74 32.39Q1.89 32.62 2.24 32.50L2.24 32.50Q1.95 32.97 2.09 33.00Q2.24 33.03 2.30 33.15L2.30 33.15Q1.95 33.32 1.95 33.59Q1.95 33.85 2.06 33.85L2.06 33.85Q2.18 33.56 2.38 33.70Q2.59 33.85 2.82 33.62L2.82 33.62Q3.41 33.32 3.85 33.38Q4.29 33.44 4.46 33.32L4.46 33.32Q4.35 33.32 4.20 33.29Q4.05 33.26 3.82 33.26L3.82 33.26Q4.35 32.50 4.05 32.44L4.05 32.44Q4.35 32.09 4.46 31.92Q4.58 31.74 4.70 31.59Q4.82 31.45 4.93 31.33Q5.05 31.21 5.05 31.10L5.05 31.10Q5.70 31.04 5.93 30.92Q6.16 30.80 6.52 30.92L6.52 30.92Q6.57 30.74 6.46 30.57Q6.34 30.39 6.52 30.28L6.52 30.28Q7.04 29.87 7.19 29.87Q7.34 29.87 7.45 29.81ZM21.87 47.21L21.87 47.21Q21.69 47.03 21.84 46.92Q21.98 46.80 21.81 46.51L21.81 46.51Q21.46 46.56 21.25 46.80Q21.05 47.03 20.75 47.15L20.75 47.15Q21.05 46.56 20.93 46.54Q20.81 46.51 20.99 46.39L20.99 46.39Q21.40 46.51 21.52 46.36Q21.63 46.21 21.81 46.15L21.81 46.15Q21.63 46.04 21.40 46.07Q21.16 46.10 20.93 46.04L20.93 46.04Q20.34 46.45 20.20 46.71Q20.05 46.98 19.88 47.21L19.88 47.21Q20.34 47.39 20.64 47.09L20.64 47.09Q20.64 47.50 20.46 47.53Q20.29 47.56 20.05 47.62L20.05 47.62Q19.76 48.09 19.32 48.41Q18.88 48.73 18.41 49.03L18.41 49.03Q18.29 49.49 18.35 49.93Q18.41 50.37 18.29 50.73L18.29 50.73Q18.76 50.26 19.20 49.93Q19.64 49.61 19.93 48.97L19.93 48.97Q20.40 48.62 20.43 48.59Q20.46 48.56 20.40 48.38L20.40 48.38Q20.64 48.32 20.81 48.15Q20.99 47.97 21.28 47.97L21.28 47.97Q21.52 47.56 21.60 47.44Q21.69 47.33 21.87 47.21ZM25.79 44.75L25.79 44.75Q25.50 44.75 25.38 44.92Q25.27 45.10 24.91 45.10L24.91 45.10Q24.91 45.57 24.39 45.63L24.39 45.63Q24.21 46.04 23.89 46.33Q23.57 46.62 23.21 46.89Q22.86 47.15 22.57 47.47Q22.28 47.80 22.10 48.26L22.10 48.26Q21.16 49.03 20.40 49.64Q19.64 50.26 19.00 51.08L19.00 51.08Q18.76 51.72 18.85 51.72Q18.94 51.72 18.94 51.84L18.94 51.84Q18.53 52.07 18.29 52.51Q18.06 52.95 18.18 53.71L18.18 53.71Q18.70 53.83 18.73 53.98Q18.76 54.12 18.59 54.24L18.59 54.24Q18.23 54.83 18.18 55.38Q18.12 55.94 18.18 56.53L18.18 56.53Q18.64 56.58 18.88 56.70Q19.11 56.82 19.41 56.94L19.41 56.94Q19.35 57.17 19.11 57.17Q18.88 57.17 18.76 57.29L18.76 57.29Q18.70 57.46 18.59 57.64Q18.47 57.81 18.41 57.99Q18.35 58.17 18.38 58.31Q18.41 58.46 18.70 58.58L18.70 58.58Q18.59 58.11 18.85 58.08Q19.11 58.05 19.35 57.93L19.35 57.93Q19.58 57.52 19.79 57.23Q19.99 56.94 20.40 57.05L20.40 57.05Q20.46 56.41 20.55 56.35Q20.64 56.29 20.58 56.12L20.58 56.12Q20.99 55.53 21.19 55.56Q21.40 55.59 21.52 55.30L21.52 55.30Q21.52 55.12 21.87 54.89Q22.22 54.65 22.69 54.77L22.69 54.77Q22.39 54.18 22.57 54.01Q22.75 53.83 22.92 53.71L22.92 53.71Q23.39 53.83 23.51 53.86Q23.63 53.89 23.68 53.77L23.68 53.77Q23.63 53.60 23.33 53.65Q23.04 53.71 22.92 53.60L22.92 53.60Q23.16 53.30 23.42 53.24Q23.68 53.19 23.98 53.01L23.98 53.01Q24.27 53.07 24.39 52.95Q24.50 52.83 24.68 52.72L24.68 52.72Q25.03 52.31 25.12 52.13Q25.21 51.96 25.50 51.96L25.50 51.96Q25.50 51.49 25.53 51.05Q25.56 50.61 25.27 50.49L25.27 50.49Q25.56 49.96 25.71 49.47Q25.85 48.97 25.73 48.26L25.73 48.26Q25.15 48.56 24.71 48.94Q24.27 49.32 23.80 49.67L23.80 49.67Q23.86 49.49 23.77 49.38Q23.68 49.26 23.63 49.03L23.63 49.03Q23.98 48.97 24.01 48.73Q24.04 48.50 24.33 48.26L24.33 48.26Q24.68 47.68 24.59 47.62Q24.50 47.56 24.56 47.44L24.56 47.44Q24.91 47.27 24.97 47.36Q25.03 47.44 25.21 47.44L25.21 47.44Q25.38 46.80 25.76 46.18Q26.14 45.57 25.79 44.75ZM25.32 53.54L25.32 53.54Q24.68 53.83 24.24 54.24Q23.80 54.65 23.39 55.12L23.39 55.12Q23.57 55.24 23.74 55.21Q23.92 55.18 24.09 55.09Q24.27 55.00 24.45 54.94Q24.62 54.89 24.86 54.94L24.86 54.94Q24.91 54.71 25.00 54.56Q25.09 54.42 24.97 54.18L24.97 54.18Q25.15 54.06 25.27 53.95Q25.38 53.83 25.32 53.54ZM6.46 33.73L6.46 33.73Q6.22 33.73 6.02 33.76Q5.81 33.79 5.81 33.97L5.81 33.97Q5.23 34.61 5.11 34.82Q4.99 35.02 4.82 35.20L4.82 35.20Q4.41 35.14 4.29 35.34Q4.17 35.55 3.82 35.49L3.82 35.49Q3.41 36.19 2.88 36.72L2.88 36.72Q2.94 36.96 2.80 37.19Q2.65 37.42 2.36 37.31L2.36 37.31Q2.47 37.60 2.68 37.51Q2.88 37.42 3.00 37.66L3.00 37.66Q3.06 37.31 3.29 37.07Q3.53 36.84 3.94 37.07L3.94 37.07Q4.17 36.66 4.70 36.72L4.70 36.72Q5.52 35.90 5.84 35.20Q6.16 34.49 6.46 33.73ZM22.98 55.88L22.98 55.88Q22.51 55.65 22.31 55.79Q22.10 55.94 21.75 56.06L21.75 56.06Q22.28 56.23 22.57 56.20Q22.86 56.17 22.98 55.88ZM3.00 36.08L3.00 36.08Q2.65 35.73 2.36 35.93Q2.06 36.14 1.77 36.25L1.77 36.25Q1.95 36.37 1.80 36.57Q1.65 36.78 1.83 36.90L1.83 36.90Q2.12 36.72 2.33 36.43Q2.53 36.14 3.00 36.08ZM23.04 56.29L23.04 56.29L22.57 56.76Q21.52 57.29 21.19 57.79Q20.87 58.28 20.29 58.28L20.29 58.28Q19.93 58.75 19.41 59.25Q18.88 59.75 18.41 60.28L18.41 60.28Q18.59 60.63 18.41 60.92L18.41 60.92Q18.94 60.39 19.26 60.13Q19.58 59.87 20.05 59.75L20.05 59.75Q20.87 58.99 21.16 58.46Q21.46 57.93 21.98 57.93L21.98 57.93Q21.93 57.64 22.04 57.43Q22.16 57.23 22.37 57.08Q22.57 56.94 22.78 56.76Q22.98 56.58 23.04 56.29ZM25.38 58.05L25.38 58.05Q25.09 57.76 24.86 57.93Q24.62 58.11 24.27 58.23L24.27 58.23Q24.27 58.46 24.09 58.61Q23.92 58.75 23.80 58.69L23.80 58.69Q23.80 58.28 23.60 58.37Q23.39 58.46 23.16 58.46L23.16 58.46Q23.63 58.81 23.63 58.99Q23.63 59.16 23.45 59.16L23.45 59.16Q23.27 59.05 23.13 58.90Q22.98 58.75 22.80 58.93L22.80 58.93Q22.80 58.40 22.98 58.40Q23.16 58.40 23.39 58.34L23.39 58.34Q23.57 57.87 24.18 57.73Q24.80 57.58 25.27 57.64L25.27 57.64Q25.03 57.23 25.09 57.11Q25.15 56.99 25.32 56.94L25.32 56.94Q25.38 56.64 25.30 56.47Q25.21 56.29 25.32 56.12L25.32 56.12Q24.91 56.00 24.59 56.06Q24.27 56.12 24.15 56.41L24.15 56.41Q23.51 56.76 23.60 56.88Q23.68 56.99 23.68 57.17L23.68 57.17Q23.27 57.29 23.24 57.40Q23.21 57.52 23.10 57.64L23.10 57.64Q22.80 57.46 22.72 57.73Q22.63 57.99 22.34 57.93L22.34 57.93Q22.22 58.58 22.07 58.55Q21.93 58.52 21.81 58.64L21.81 58.64Q21.69 59.16 21.49 59.22Q21.28 59.28 21.28 59.57L21.28 59.57Q21.57 59.40 21.84 59.46Q22.10 59.51 22.39 59.63L22.39 59.63Q22.51 59.34 22.78 59.19Q23.04 59.05 23.16 59.34L23.16 59.34Q22.75 59.46 22.48 59.75Q22.22 60.04 21.69 60.10L21.69 60.10Q21.52 60.57 21.08 60.63Q20.64 60.69 20.46 61.21L20.46 61.21Q20.11 61.68 19.73 61.77Q19.35 61.86 19.17 62.15L19.17 62.15Q18.70 62.50 18.53 62.74Q18.35 62.97 18.32 63.29Q18.29 63.62 18.32 64.00Q18.35 64.38 18.23 64.73L18.23 64.73Q18.70 64.38 18.91 64.17Q19.11 63.97 19.32 63.76Q19.52 63.56 19.76 63.44Q19.99 63.32 20.34 63.38L20.34 63.38Q20.34 63.26 20.37 63.06Q20.40 62.85 20.52 62.74L20.52 62.74Q21.22 62.50 21.28 62.62Q21.34 62.74 21.52 62.85L21.52 62.85Q21.63 62.56 21.37 62.47Q21.11 62.39 20.99 62.27L20.99 62.27Q21.16 62.21 21.25 62.06Q21.34 61.92 21.63 61.92L21.63 61.92Q21.81 61.51 21.90 61.42Q21.98 61.33 22.16 61.39L22.16 61.39Q22.16 60.92 22.57 60.89Q22.98 60.86 23.10 60.63L23.10 60.63Q23.74 60.39 24.01 60.07Q24.27 59.75 24.74 59.63L24.74 59.63Q24.74 58.93 25.00 58.69Q25.27 58.46 25.38 58.05ZM25.15 69.42L25.68 69.24Q25.38 68.95 25.47 68.45Q25.56 67.95 25.27 67.54L25.27 67.54Q25.38 67.13 25.47 66.63Q25.56 66.14 25.27 65.78L25.27 65.78Q24.68 66.37 24.27 66.25L24.27 66.25Q24.21 66.43 24.15 66.60Q24.09 66.78 24.04 66.96L24.04 66.96Q24.56 66.84 24.83 67.04Q25.09 67.25 25.09 67.51Q25.09 67.78 24.88 68.04Q24.68 68.30 24.27 68.30L24.27 68.30Q24.27 68.60 24.21 68.71Q24.15 68.83 24.09 68.95L24.09 68.95Q24.39 69.18 24.65 69.15Q24.91 69.12 25.15 69.42L25.15 69.42ZM20.52 63.67L20.52 63.67Q20.11 63.85 19.93 63.82Q19.76 63.79 19.82 63.97L19.82 63.97Q20.46 63.91 20.46 63.82Q20.46 63.73 20.52 63.67ZM26.09 71.35L26.61 71.53Q26.85 71.23 26.76 70.91Q26.67 70.59 26.20 70.65L26.20 70.65Q26.26 70.94 26.17 71.03Q26.09 71.12 26.09 71.35L26.09 71.35ZM25.50 63.09L25.50 63.09Q25.38 62.97 25.30 62.82Q25.21 62.68 24.97 62.68L24.97 62.68Q24.86 62.97 24.56 62.97Q24.27 62.97 24.15 63.09L24.15 63.09Q23.98 62.56 24.45 62.33Q24.91 62.09 25.21 61.51L25.21 61.51Q24.97 61.51 24.80 61.54Q24.62 61.56 24.50 61.56L24.50 61.56Q24.62 61.33 25.15 61.39L25.15 61.39Q25.21 61.10 25.09 60.89Q24.97 60.69 25.27 60.45L25.27 60.45Q24.56 60.22 24.53 60.10Q24.50 59.98 24.33 60.10L24.33 60.10Q24.15 60.45 23.83 60.69Q23.51 60.92 23.16 61.21L23.16 61.21Q22.80 61.51 22.34 61.51L22.34 61.51Q21.81 62.21 21.69 62.50L21.69 62.50Q22.10 62.68 22.31 62.50Q22.51 62.33 22.80 62.33L22.80 62.33Q22.63 62.85 22.54 62.88Q22.45 62.91 22.51 63.09L22.51 63.09Q22.04 63.26 22.04 63.38Q22.04 63.50 21.93 63.62L21.93 63.62Q21.57 63.26 21.43 63.35Q21.28 63.44 21.28 63.73L21.28 63.73Q21.57 63.97 21.31 64.03Q21.05 64.08 20.78 64.14Q20.52 64.20 20.37 64.35Q20.23 64.49 20.34 64.90L20.34 64.90Q19.76 65.20 19.49 65.43Q19.23 65.67 18.97 65.93Q18.70 66.19 18.50 66.52Q18.29 66.84 18.29 67.31L18.29 67.31Q18.41 67.07 18.59 67.19Q18.76 67.31 18.94 67.25L18.94 67.25Q19.52 67.42 19.35 67.57Q19.17 67.72 19.35 67.83L19.35 67.83Q19.35 68.42 19.29 68.60L19.29 68.60Q18.88 68.71 18.82 68.77Q18.76 68.83 18.64 68.83L18.64 68.83Q18.23 69.71 17.53 70.18Q16.83 70.65 16.24 71.29L16.24 71.29Q16.59 71.47 16.92 71.06Q17.24 70.65 17.77 70.65L17.77 70.65Q18.41 69.83 19.20 69.30Q19.99 68.77 20.75 68.13L20.75 68.13Q21.34 67.89 21.72 67.66Q22.10 67.42 22.28 67.42L22.28 67.42Q22.80 66.84 22.95 66.98Q23.10 67.13 23.10 66.90L23.10 66.90Q23.39 66.14 23.74 65.87Q24.09 65.61 24.50 65.73L24.50 65.73Q24.50 65.43 24.24 65.46Q23.98 65.49 23.92 65.31L23.92 65.31Q24.50 65.43 24.62 65.26L24.62 65.26Q24.97 64.90 24.88 64.79Q24.80 64.67 24.68 64.61L24.68 64.61Q25.15 64.44 25.09 64.38Q25.03 64.32 25.09 64.08L25.09 64.08Q25.38 64.20 25.38 63.73Q25.38 63.26 25.50 63.09ZM23.98 68.95L23.98 68.95Q23.68 68.77 23.51 68.60Q23.33 68.42 23.16 68.71L23.16 68.71Q23.63 69.01 23.60 69.18Q23.57 69.36 23.45 69.36L23.45 69.36Q23.80 69.53 23.98 68.95ZM25.91 70.06L25.91 70.06Q25.73 69.94 25.68 69.80Q25.62 69.65 25.38 69.59L25.38 69.59Q24.56 69.48 24.74 69.77L24.74 69.77Q24.21 69.94 24.15 69.89Q24.09 69.83 23.98 69.83L23.98 69.83Q23.21 70.24 22.86 70.62Q22.51 71.00 21.93 71.23L21.93 71.23Q22.10 71.53 22.48 71.58Q22.86 71.64 23.30 71.58Q23.74 71.53 24.15 71.47Q24.56 71.41 24.86 71.47L24.86 71.47Q25.15 71.06 25.30 70.71Q25.44 70.35 25.91 70.06ZM24.27 67.66L24.27 67.66Q24.04 67.25 23.92 67.22Q23.80 67.19 23.68 67.31L23.68 67.31Q23.45 68.19 22.98 68.22Q22.51 68.24 22.22 68.54L22.22 68.54Q22.16 68.71 21.78 68.98Q21.40 69.24 21.11 69.18L21.11 69.18Q20.58 69.59 20.67 69.71Q20.75 69.83 20.64 69.83L20.64 69.83Q20.23 69.77 20.02 70.03Q19.82 70.30 19.52 70.30L19.52 70.30Q19.29 70.47 19.20 70.68Q19.11 70.88 18.76 70.71L18.76 70.71Q18.88 71.00 18.88 71.17Q18.88 71.35 18.76 71.47L18.76 71.47Q19.00 71.64 19.23 71.53Q19.46 71.41 19.67 71.26Q19.88 71.12 20.11 71.00Q20.34 70.88 20.70 71.00L20.70 71.00Q20.87 70.88 21.13 70.73Q21.40 70.59 21.11 70.41L21.11 70.41Q21.40 70.06 21.63 70.00L21.63 70.00Q21.93 69.94 21.90 69.71Q21.87 69.48 21.98 69.42L21.98 69.42Q22.63 69.48 22.60 69.39Q22.57 69.30 22.86 69.36L22.86 69.36Q22.92 68.60 23.24 68.51Q23.57 68.42 23.74 68.19L23.74 68.19Q24.04 68.19 24.09 68.07Q24.15 67.95 24.27 67.66ZM18.94 68.19L18.94 68.19Q19.00 68.07 19.08 67.83Q19.17 67.60 18.94 67.54L18.94 67.54Q18.82 67.89 18.82 68.04Q18.82 68.19 18.94 68.19ZM24.97 30.39L24.97 30.39Q24.86 30.92 24.42 31.15Q23.98 31.39 23.68 31.80L23.68 31.80Q22.75 32.09 22.54 32.53Q22.34 32.97 21.69 32.97L21.69 32.97Q21.28 33.38 20.70 33.50L20.70 33.50Q20.40 34.26 20.05 34.38Q19.70 34.49 19.46 34.61L19.46 34.61Q19.82 33.97 19.73 33.94Q19.64 33.91 19.70 33.79L19.70 33.79Q19.99 33.79 20.29 33.38L20.29 33.38Q20.05 32.80 20.40 32.94Q20.75 33.09 20.70 32.68L20.70 32.68Q20.93 32.80 20.99 32.82Q21.05 32.85 21.28 32.97L21.28 32.97Q21.52 32.50 21.55 32.33Q21.57 32.15 21.87 32.21L21.87 32.21Q22.16 31.80 22.13 31.74Q22.10 31.68 22.22 31.39L22.22 31.39Q22.45 31.45 22.60 31.54Q22.75 31.62 22.98 31.51L22.98 31.51Q22.92 30.92 23.30 30.83Q23.68 30.74 23.98 30.98L23.98 30.98Q23.86 30.74 23.92 30.66Q23.98 30.57 23.92 30.33L23.92 30.33Q24.21 30.39 24.50 30.31Q24.80 30.22 24.97 30.39ZM21.75 34.32L21.75 34.32Q21.63 34.44 21.43 34.41Q21.22 34.38 21.11 34.49L21.11 34.49Q21.52 34.08 21.57 34.17Q21.63 34.26 21.75 34.32ZM19.35 32.97L19.82 33.03Q19.52 33.15 19.52 33.35Q19.52 33.56 19.52 33.73L19.52 33.73Q19.35 33.38 19.38 33.32Q19.41 33.26 19.35 32.97L19.35 32.97ZM21.98 36.31L21.98 36.31Q21.69 36.25 21.69 36.46Q21.69 36.66 21.40 36.66L21.40 36.66Q21.98 36.08 21.98 36.31ZM19.17 33.67L19.17 33.67Q19.00 33.79 18.85 33.88Q18.70 33.97 18.53 33.97L18.53 33.97Q18.70 33.50 18.85 33.56Q19.00 33.62 19.17 33.67ZM24.27 40.53L24.50 40.94Q24.33 41.06 24.04 41.06Q23.74 41.06 23.57 40.94L23.57 40.94Q24.09 40.82 24.12 40.71Q24.15 40.59 24.27 40.53L24.27 40.53ZM22.51 41.35L22.51 41.35Q22.63 41.64 22.37 41.58Q22.10 41.53 21.87 41.58L21.87 41.58Q22.10 41.53 22.19 41.41Q22.28 41.29 22.51 41.35ZM24.62 51.25L24.62 51.25Q23.86 51.49 23.74 51.90L23.74 51.90Q23.92 51.55 24.12 51.34Q24.33 51.14 24.62 51.25ZM23.63 49.61L23.63 49.61Q23.10 49.73 23.04 50.08Q22.98 50.43 22.86 50.55L22.86 50.55Q22.51 50.78 22.13 50.99Q21.75 51.19 21.28 51.31L21.28 51.31Q21.22 51.08 21.57 50.93Q21.93 50.78 22.22 50.73L22.22 50.73Q22.34 50.61 22.45 50.40Q22.57 50.20 22.86 50.37L22.86 50.37Q22.57 50.08 22.86 49.73Q23.16 49.38 23.63 49.61ZM22.10 52.89L22.28 52.89Q21.93 53.36 21.87 53.42Q21.81 53.48 21.69 53.48L21.69 53.48Q21.87 53.19 21.98 53.13Q22.10 53.07 22.10 52.89L22.10 52.89ZM21.40 54.24L21.40 54.24Q20.93 54.36 20.52 54.42L20.52 54.42Q20.87 54.42 21.05 54.21Q21.22 54.01 21.40 54.24ZM20.46 54.77L20.46 54.77Q20.64 55.00 20.29 55.09Q19.93 55.18 19.82 55.00L19.82 55.00Q20.23 54.94 20.46 54.77ZM24.27 62.03L24.27 62.03Q23.68 62.15 23.54 62.12Q23.39 62.09 23.39 61.92L23.39 61.92Q23.68 62.03 23.83 62.06Q23.98 62.09 24.27 62.03ZM24.21 63.50L24.21 63.50Q24.09 63.79 23.80 63.82Q23.51 63.85 23.39 64.03L23.39 64.03Q23.21 63.91 23.10 63.79Q22.98 63.67 22.69 63.79L22.69 63.79Q22.75 63.21 23.30 63.29Q23.86 63.38 24.21 63.50ZM23.74 65.55L23.74 65.55Q23.63 65.73 23.42 65.78Q23.21 65.84 22.92 65.90L22.92 65.90Q23.27 65.73 23.33 65.61Q23.39 65.49 23.74 65.55ZM23.10 64.08L23.10 64.44Q22.75 64.85 22.45 65.02Q22.16 65.20 21.98 65.49L21.98 65.49Q22.39 65.37 22.98 65.26L22.98 65.26Q22.98 65.67 22.66 65.73Q22.34 65.78 22.22 66.08L22.22 66.08Q21.81 65.73 21.90 65.64Q21.98 65.55 21.87 65.49L21.87 65.49Q21.57 65.67 21.22 65.61Q20.87 65.55 20.58 65.84L20.58 65.84Q21.11 65.37 21.49 65.08Q21.87 64.79 22.39 64.44L22.39 64.44Q22.34 63.85 22.57 64.03Q22.80 64.20 23.10 64.08L23.10 64.08ZM20.99 66.49L21.34 66.90Q21.11 66.84 21.05 66.84Q20.99 66.84 20.70 66.90L20.70 66.90Q20.23 67.13 20.46 67.54L20.46 67.54Q20.17 67.78 20.08 67.51Q19.99 67.25 19.70 67.42L19.70 67.42Q20.34 67.13 20.40 66.78L20.40 66.78Q19.99 66.14 20.11 66.11Q20.23 66.08 20.37 66.08Q20.52 66.08 20.64 66.05Q20.75 66.02 20.75 65.84L20.75 65.84Q21.11 66.19 21.02 66.25Q20.93 66.31 20.99 66.49L20.99 66.49ZM99.80 70.35L99.80 70.35Q100.32 70.94 99.74 71.53L99.74 71.53Q99.33 71.53 99.01 71.47Q98.68 71.41 98.57 71.82L98.57 71.82Q97.98 71.82 97.39 71.88Q96.81 71.94 96.40 71.88L96.40 71.88Q95.34 71.94 94.61 72.02Q93.88 72.11 92.94 72.05L92.94 72.05Q92.18 72.05 91.65 72.29L91.65 72.29Q91.24 72.40 91.13 72.35Q91.01 72.29 90.77 72.40L90.77 72.40Q90.36 72.29 89.95 72.29Q89.54 72.29 89.31 72.46L89.31 72.46Q88.96 72.29 88.52 72.29Q88.08 72.29 87.64 72.35Q87.20 72.40 86.76 72.49Q86.32 72.58 85.91 72.46L85.91 72.46Q85.68 72.40 85.56 72.20Q85.44 71.99 85.15 71.99L85.15 71.99Q84.39 72.35 83.86 72.35Q83.33 72.35 82.69 72.52L82.69 72.52Q82.28 72.52 81.69 72.35Q81.11 72.17 80.81 72.29L80.81 72.29Q80.05 72.58 80.05 72.46Q80.05 72.35 79.93 72.35L79.93 72.35Q78.59 72.52 77.44 72.73Q76.30 72.93 74.60 72.99L74.60 72.99Q74.48 72.76 74.31 72.55Q74.13 72.35 74.13 71.94L74.13 71.94Q75.77 71.82 77.50 71.47Q79.23 71.12 80.70 70.59L80.70 70.59Q80.75 69.77 80.84 69.62Q80.93 69.48 80.93 69.30L80.93 69.30Q81.22 68.95 81.28 68.80Q81.34 68.65 81.40 68.42L81.40 68.42Q81.05 68.24 80.99 68.42Q80.93 68.60 80.70 68.60L80.70 68.60Q80.52 68.13 80.52 67.92Q80.52 67.72 80.58 67.60L80.58 67.60Q80.81 67.72 81.02 67.60Q81.22 67.48 81.34 67.37L81.34 67.37Q81.63 66.66 81.63 65.81Q81.63 64.96 81.16 64.49L81.16 64.49Q81.40 64.26 81.63 63.91L81.63 63.91Q81.40 63.26 81.60 62.71Q81.81 62.15 81.52 61.68L81.52 61.68Q81.98 60.57 81.87 59.34Q81.75 58.11 82.04 56.94L82.04 56.94Q82.16 55.94 82.01 55.44Q81.87 54.94 82.10 54.48L82.10 54.48Q81.57 54.24 81.55 53.95Q81.52 53.65 81.69 53.30Q81.87 52.95 82.04 52.51Q82.22 52.07 82.10 51.55L82.10 51.55Q81.98 51.37 81.84 51.28Q81.69 51.19 81.57 51.08L81.57 51.08Q82.10 50.37 82.04 49.76Q81.98 49.14 82.16 48.67L82.16 48.67Q82.10 47.85 82.04 47.27Q81.98 46.68 81.57 46.27L81.57 46.27Q81.81 45.86 82.01 45.60Q82.22 45.33 82.31 45.04Q82.39 44.75 82.31 44.43Q82.22 44.10 81.93 43.99L81.93 43.99Q82.63 42.87 82.39 41.88L82.39 41.88Q82.34 41.53 82.13 41.38Q81.93 41.23 81.81 40.94L81.81 40.94Q81.81 40.65 81.93 40.53Q82.04 40.41 82.10 40.12L82.10 40.12Q82.22 39.65 82.10 39.09Q81.98 38.54 81.63 38.42L81.63 38.42Q82.10 37.48 81.75 36.08L81.75 36.08Q81.28 36.14 81.05 36.22Q80.81 36.31 80.46 36.43L80.46 36.43Q80.23 36.31 80.14 36.11Q80.05 35.90 79.88 35.78L79.88 35.78Q79.93 35.61 80.08 35.52Q80.23 35.43 80.34 35.31L80.34 35.31Q80.81 34.96 80.96 35.05Q81.11 35.14 81.28 35.02L81.28 35.02Q81.16 34.85 81.19 34.73Q81.22 34.61 81.28 34.47Q81.34 34.32 81.37 34.17Q81.40 34.03 81.34 33.79L81.34 33.79Q81.05 33.67 80.81 33.85Q80.58 34.03 80.23 33.91L80.23 33.91Q79.93 34.38 79.70 34.61L79.70 34.61Q79.88 34.79 79.70 34.99Q79.52 35.20 79.70 35.49L79.70 35.49Q79.52 35.78 79.20 35.99Q78.88 36.19 78.76 36.66L78.76 36.66Q78.70 36.90 78.82 37.16Q78.94 37.42 78.64 37.54L78.64 37.54Q78.59 37.95 78.50 38.36Q78.41 38.77 78.29 39.18Q78.18 39.59 78.00 40.00Q77.82 40.41 77.47 40.65L77.47 40.65Q77.77 41.23 77.47 41.67Q77.18 42.11 77.00 42.58L77.00 42.58Q77.18 42.93 77.09 43.05Q77.00 43.17 76.95 43.34L76.95 43.34Q76.95 43.87 76.77 44.07Q76.59 44.28 76.54 44.51L76.54 44.51Q76.48 45.28 76.42 45.28Q76.36 45.28 76.30 45.57L76.30 45.57Q76.30 45.92 76.13 46.10Q75.95 46.27 75.89 46.56L75.89 46.56Q75.77 47.44 75.63 47.68Q75.48 47.91 75.60 48.26L75.60 48.26Q75.48 48.73 75.42 48.82Q75.36 48.91 75.42 49.20L75.42 49.20Q75.19 49.44 75.07 49.79Q74.95 50.14 74.89 50.52Q74.84 50.90 74.72 51.28Q74.60 51.66 74.37 51.90L74.37 51.90Q74.43 52.54 74.07 52.98Q73.72 53.42 73.84 53.95L73.84 53.95Q73.61 54.18 73.58 54.48Q73.55 54.77 73.52 55.06Q73.49 55.35 73.40 55.65Q73.31 55.94 73.02 56.17L73.02 56.17Q73.25 56.64 72.96 56.94Q72.67 57.23 72.79 57.76L72.79 57.76Q72.55 57.81 72.52 57.96Q72.49 58.11 72.49 58.28Q72.49 58.46 72.46 58.61Q72.43 58.75 72.14 58.75L72.14 58.75Q72.14 59.40 71.99 60.04Q71.85 60.69 71.38 61.15L71.38 61.15Q71.61 61.45 71.44 61.68Q71.26 61.92 71.14 62.39L71.14 62.39Q71.03 62.97 70.68 63.67Q70.32 64.38 70.09 64.67L70.09 64.67Q70.09 65.26 69.94 65.93Q69.80 66.60 69.45 67.01L69.45 67.01Q69.62 67.48 69.33 67.92Q69.04 68.36 68.86 68.77L68.86 68.77Q68.86 69.24 68.74 69.65Q68.63 70.06 68.48 70.50Q68.33 70.94 68.27 71.41Q68.21 71.88 68.39 72.40L68.39 72.40Q67.51 72.76 67.13 72.11Q66.75 71.47 66.87 70.65L66.87 70.65Q66.28 70.00 66.02 69.04Q65.75 68.07 65.46 67.13L65.46 67.13Q65.17 66.90 65.11 66.49Q65.05 66.08 64.76 65.90L64.76 65.90Q64.58 64.79 64.05 63.91Q63.53 63.03 63.23 62.21L63.23 62.21Q62.94 62.15 62.68 62.00Q62.41 61.86 62.12 61.80L62.12 61.80Q62.24 61.04 62.47 60.89Q62.71 60.74 62.65 60.28L62.65 60.28Q62.36 59.98 62.06 59.78Q61.77 59.57 61.65 59.22L61.65 59.22Q61.71 58.17 61.30 57.55Q60.89 56.94 60.48 56.17L60.48 56.17Q60.54 55.76 60.33 55.76Q60.13 55.76 60.01 55.65L60.01 55.65Q59.89 55.12 60.30 54.94L60.30 54.94Q60.36 54.48 60.16 54.33Q59.95 54.18 59.84 53.71L59.84 53.71Q59.43 53.65 59.22 53.74Q59.02 53.83 58.72 53.89L58.72 53.89Q58.72 53.19 59.19 53.24L59.19 53.24Q59.07 52.60 58.96 52.19Q58.84 51.78 58.72 51.31L58.72 51.31Q58.31 51.72 58.22 51.75Q58.14 51.78 57.96 51.84L57.96 51.84Q57.67 51.19 57.79 51.11Q57.90 51.02 57.96 50.73L57.96 50.73Q58.02 49.61 57.93 48.85Q57.84 48.09 57.61 47.27L57.61 47.27Q57.43 46.45 57.23 46.15Q57.02 45.86 57.26 45.51L57.26 45.51Q56.91 44.51 56.67 44.16L56.67 44.16Q56.14 44.05 56.14 43.81Q56.14 43.58 56.20 43.31Q56.26 43.05 56.23 42.81Q56.20 42.58 56.03 42.29L56.03 42.29Q55.62 42.46 55.50 42.26Q55.38 42.05 55.09 41.94L55.09 41.94Q55.15 41.58 55.30 41.38Q55.44 41.17 55.62 41.00L55.62 41.00Q55.50 40.24 54.74 40.47L54.74 40.47Q54.86 39.94 54.88 39.77Q54.91 39.59 55.15 39.36L55.15 39.36Q54.97 38.65 54.74 38.24L54.74 38.24Q54.33 38.48 53.80 38.07L53.80 38.07Q53.86 37.78 53.92 37.54Q53.98 37.31 54.27 37.25L54.27 37.25Q53.98 36.25 53.65 35.43Q53.33 34.61 52.69 34.08L52.69 34.08Q52.51 33.44 52.45 33.15Q52.39 32.85 52.04 32.74L52.04 32.74Q51.75 32.85 51.90 33.15Q52.04 33.44 51.81 33.50L51.81 33.50Q51.87 34.49 51.87 34.93Q51.87 35.37 51.52 35.67L51.52 35.67Q51.57 36.14 51.93 36.31L51.93 36.31Q51.93 37.01 51.98 37.42Q52.04 37.83 52.04 38.27Q52.04 38.71 52.07 39.12Q52.10 39.53 52.28 39.89L52.28 39.89Q52.28 40.12 52.13 40.21Q51.98 40.30 51.87 40.41L51.87 40.41Q51.81 40.59 51.87 40.76Q51.93 40.94 51.81 41.06L51.81 41.06Q52.22 41.35 52.16 41.44Q52.10 41.53 52.10 41.82L52.10 41.82Q51.75 42.40 51.81 42.70L51.81 42.70Q52.16 42.70 52.16 43.02Q52.16 43.34 51.87 43.46L51.87 43.46Q52.22 44.22 52.07 44.25Q51.93 44.28 51.87 44.40L51.87 44.40Q52.45 44.92 52.16 45.39L52.16 45.39Q52.28 46.04 52.10 46.10L52.10 46.10Q52.28 46.33 52.25 46.51Q52.22 46.68 52.39 47.09L52.39 47.09Q52.34 47.50 52.42 47.68Q52.51 47.85 52.22 47.91L52.22 47.91Q52.51 48.32 52.45 48.62Q52.39 48.91 52.51 49.49L52.51 49.49Q52.45 49.96 52.34 50.05Q52.22 50.14 52.16 50.37L52.16 50.37Q52.51 51.19 52.51 51.66Q52.51 52.13 52.63 52.66L52.63 52.66Q52.69 52.95 52.72 53.42Q52.75 53.89 52.80 54.42L52.80 54.42Q52.45 54.77 52.66 54.89Q52.86 55.00 52.92 55.35L52.92 55.35Q52.98 56.23 52.92 56.58Q52.86 56.94 53.10 57.23L53.10 57.23Q53.04 57.81 53.10 58.20Q53.16 58.58 53.21 58.93Q53.27 59.28 53.27 59.54Q53.27 59.81 53.10 59.98L53.10 59.98Q53.51 60.51 53.36 60.51Q53.21 60.51 53.27 60.63L53.27 60.63Q53.33 60.86 53.45 60.95Q53.57 61.04 53.63 61.33L53.63 61.33Q53.39 61.56 53.39 61.74Q53.39 61.92 53.45 62.09Q53.51 62.27 53.54 62.47Q53.57 62.68 53.39 62.85L53.39 62.85Q53.57 63.50 53.63 63.76Q53.68 64.03 53.86 64.44L53.86 64.44Q53.68 64.90 53.71 65.02Q53.74 65.14 53.68 65.29Q53.63 65.43 53.63 65.52Q53.63 65.61 53.80 65.67L53.80 65.67Q53.63 66.14 54.04 66.55L54.04 66.55Q54.04 66.90 53.92 67.16Q53.80 67.42 54.09 67.54L54.09 67.54Q54.27 68.13 54.18 68.13Q54.09 68.13 54.09 68.24L54.09 68.24Q54.27 68.71 54.74 69.09Q55.21 69.48 55.15 69.94L55.15 69.94Q55.97 70.30 56.41 70.71Q56.85 71.12 57.61 71.23L57.61 71.23Q58.43 71.35 59.37 71.09Q60.30 70.82 61.13 71.06L61.13 71.06Q61.18 71.23 61.18 71.38Q61.18 71.53 61.30 71.76L61.30 71.76Q61.07 71.99 60.77 72.05Q60.48 72.11 60.36 72.40L60.36 72.40Q59.78 72.46 59.10 72.40Q58.43 72.35 58.02 72.76L58.02 72.76Q57.20 72.52 56.76 72.26Q56.32 71.99 56.09 72.46L56.09 72.46Q55.62 72.17 55.03 72.32Q54.45 72.46 54.04 72.46L54.04 72.46Q53.51 72.64 53.36 72.58Q53.21 72.52 52.92 72.58L52.92 72.58Q52.45 72.11 51.90 72.35Q51.34 72.58 50.70 72.58L50.70 72.58Q50.17 72.52 49.61 72.52Q49.05 72.52 48.76 72.81L48.76 72.81Q47.47 72.70 46.27 72.87Q45.07 73.05 43.55 72.93L43.55 72.93Q43.49 72.64 43.17 72.46Q42.84 72.29 43.02 71.88L43.02 71.88Q44.37 71.41 45.95 71.50Q47.53 71.58 48.88 71.12L48.88 71.12Q49.93 70.76 50.43 70.09Q50.93 69.42 51.63 68.77L51.63 68.77Q52.10 67.89 52.22 66.81Q52.34 65.73 52.28 64.64Q52.22 63.56 52.07 62.44Q51.93 61.33 51.87 60.33L51.87 60.33Q51.81 60.04 51.87 59.75Q51.93 59.46 51.57 59.22L51.57 59.22Q51.87 58.17 51.78 56.88Q51.69 55.59 51.63 54.24L51.63 54.24Q51.63 54.01 51.52 53.77Q51.40 53.54 51.40 53.24L51.40 53.24Q51.40 51.84 51.31 50.17Q51.22 48.50 51.05 47.03L51.05 47.03Q51.05 46.68 50.99 46.18Q50.93 45.69 50.81 45.22L50.81 45.22Q50.93 44.22 50.70 43.20Q50.46 42.17 50.75 41.06L50.75 41.06Q50.64 39.83 50.75 38.30Q50.87 36.78 50.46 35.43L50.46 35.43Q50.70 35.31 50.61 34.99Q50.52 34.67 50.46 34.49L50.46 34.49Q50.34 34.38 50.14 34.29Q49.93 34.20 49.82 34.03L49.82 34.03Q49.88 33.56 49.73 33.23Q49.58 32.91 49.32 32.65Q49.05 32.39 48.82 32.09Q48.59 31.80 48.47 31.39L48.47 31.39Q48.06 31.15 47.80 30.77Q47.53 30.39 47.24 30.10L47.24 30.10Q46.83 30.16 46.56 30.04Q46.30 29.92 46.01 29.81L46.01 29.81Q45.48 29.75 45.07 29.78Q44.66 29.81 44.25 29.51L44.25 29.51Q43.78 29.51 43.40 29.43Q43.02 29.34 42.70 29.19Q42.38 29.05 42.14 28.84Q41.91 28.64 41.85 28.28L41.85 28.28Q42.67 27.76 43.87 27.90Q45.07 28.05 46.13 28.11L46.13 28.11Q49.41 28.46 52.51 28.31Q55.62 28.17 58.66 28.46L58.66 28.46Q59.31 28.23 59.92 28.25Q60.54 28.28 60.48 29.05L60.48 29.05Q60.54 30.04 60.54 30.48Q60.54 30.92 60.71 31.51L60.71 31.51Q61.48 31.80 61.42 32.03Q61.36 32.27 61.27 32.50Q61.18 32.74 61.15 33.00Q61.13 33.26 61.30 33.50L61.30 33.50Q61.77 34.08 61.92 34.26Q62.06 34.44 62.12 34.73L62.12 34.73Q61.59 35.08 61.83 35.58Q62.06 36.08 62.47 36.25L62.47 36.25Q62.24 36.78 62.36 37.10Q62.47 37.42 62.65 37.75Q62.82 38.07 62.94 38.36Q63.06 38.65 62.82 39.06L62.82 39.06Q63.06 39.59 63.00 39.68Q62.94 39.77 62.94 39.89L62.94 39.89Q63.18 40.00 63.47 40.30L63.47 40.30Q63.53 41.41 64.05 41.23L64.05 41.23Q64.17 41.70 64.08 42.23Q64.00 42.76 64.11 43.05L64.11 43.05Q64.23 43.11 64.46 43.14Q64.70 43.17 64.82 42.99L64.82 42.99Q65.17 43.28 65.08 43.43Q64.99 43.58 65.11 43.87L65.11 43.87Q64.70 44.51 64.79 44.69Q64.88 44.87 65.17 45.10L65.17 45.10Q65.46 45.22 65.43 45.77Q65.40 46.33 65.40 46.68L65.40 46.68Q66.22 46.98 66.16 47.30Q66.11 47.62 65.87 47.80L65.87 47.80Q65.93 48.44 66.22 48.82Q66.52 49.20 66.40 49.67L66.40 49.67Q66.63 50.02 66.72 50.14Q66.81 50.26 66.69 50.37L66.69 50.37Q67.04 50.73 67.19 51.16Q67.34 51.60 67.45 52.07Q67.57 52.54 67.72 52.95Q67.86 53.36 68.27 53.65L68.27 53.65Q68.27 53.95 68.45 54.33Q68.63 54.71 68.74 55.00L68.74 55.00Q69.09 54.89 69.36 55.06Q69.62 55.24 69.91 55.35L69.91 55.35Q69.74 55.65 69.65 55.71Q69.56 55.76 69.45 56.06L69.45 56.06Q69.50 56.35 69.71 56.44Q69.91 56.53 69.97 56.88L69.97 56.88Q70.27 57.58 70.44 58.05Q70.62 58.52 70.91 59.05L70.91 59.05Q71.14 58.99 71.23 58.75Q71.32 58.52 71.38 58.28Q71.44 58.05 71.53 57.81Q71.61 57.58 71.91 57.46L71.91 57.46Q71.85 57.17 71.96 57.08Q72.08 56.99 71.96 56.70L71.96 56.70Q72.32 55.18 72.81 53.51Q73.31 51.84 73.84 50.55L73.84 50.55Q74.31 49.14 74.60 47.88Q74.89 46.62 75.13 45.51L75.13 45.51Q75.36 45.51 75.42 45.31Q75.48 45.10 75.60 44.98L75.60 44.98Q75.54 44.28 75.77 43.66Q76.01 43.05 76.30 42.52L76.30 42.52Q76.18 42.35 76.21 42.11Q76.24 41.88 76.33 41.67Q76.42 41.47 76.45 41.26Q76.48 41.06 76.36 40.88L76.36 40.88Q76.59 40.65 76.68 40.41Q76.77 40.18 76.92 39.91Q77.06 39.65 77.15 39.39Q77.24 39.12 77.18 38.77L77.18 38.77Q77.77 38.42 77.80 37.69Q77.82 36.96 78.00 36.25L78.00 36.25Q78.12 35.78 78.44 35.43Q78.76 35.08 78.64 34.61L78.64 34.61Q79.00 34.32 79.08 33.79Q79.17 33.26 79.29 32.62L79.29 32.62Q79.82 32.15 79.85 31.42Q79.88 30.69 80.34 30.28L80.34 30.28Q80.23 29.92 80.20 29.37Q80.17 28.81 79.93 28.52L79.93 28.52Q80.58 28.40 80.61 28.34Q80.64 28.28 80.75 28.23L80.75 28.23Q82.63 28.05 84.39 27.93Q86.14 27.81 87.84 27.76L87.84 27.76Q89.72 28.17 91.71 27.52L91.71 27.52Q92.36 27.70 93.15 27.76Q93.94 27.81 94.41 27.52L94.41 27.52Q95.40 27.87 96.66 27.73Q97.92 27.58 98.86 28.11L98.86 28.11Q98.63 28.69 98.77 28.69Q98.92 28.69 98.92 28.87L98.92 28.87Q98.86 29.16 98.65 29.19Q98.45 29.22 98.33 29.34L98.33 29.34Q98.16 29.05 97.72 29.02Q97.28 28.99 97.04 28.81L97.04 28.81Q95.05 29.05 93.18 29.34L93.18 29.34Q92.94 29.57 92.71 29.78Q92.47 29.98 92.06 30.10L92.06 30.10Q92.00 30.45 91.89 30.98Q91.77 31.51 91.65 31.98L91.65 31.98Q91.42 31.98 91.51 32.30Q91.59 32.62 91.42 32.91L91.42 32.91Q92.00 33.44 91.97 33.29Q91.95 33.15 92.06 33.15L92.06 33.15Q92.53 33.32 92.27 33.79Q92.00 34.26 91.65 34.08L91.65 34.08Q91.42 34.90 91.36 35.87Q91.30 36.84 91.36 37.83L91.36 37.83Q91.18 39.18 91.33 40.35Q91.48 41.53 91.18 42.81L91.18 42.81Q91.65 43.40 91.80 43.31Q91.95 43.23 92.18 43.11L92.18 43.11Q92.24 43.40 92.15 43.52Q92.06 43.64 92.00 43.87L92.00 43.87Q91.48 43.93 91.45 44.28Q91.42 44.63 91.13 44.87L91.13 44.87Q91.07 45.39 91.18 45.83Q91.30 46.27 91.18 46.56L91.18 46.56Q91.18 47.44 91.13 48.18Q91.07 48.91 91.30 49.49L91.30 49.49Q90.71 51.19 90.80 52.40Q90.89 53.60 91.01 54.77L91.01 54.77Q90.71 54.94 90.66 55.21Q90.60 55.47 90.57 55.79Q90.54 56.12 90.48 56.41Q90.42 56.70 90.25 56.94L90.25 56.94Q90.89 57.11 90.89 57.20Q90.89 57.29 91.01 57.35L91.01 57.35Q90.89 57.58 90.74 57.64Q90.60 57.70 90.71 57.99L90.71 57.99Q90.48 58.46 90.39 58.75Q90.30 59.05 90.36 59.46L90.36 59.46Q90.71 59.51 90.77 59.63Q90.83 59.75 91.13 59.69L91.13 59.69Q90.83 60.10 90.19 60.39L90.19 60.39Q90.54 60.98 90.33 61.18Q90.13 61.39 90.01 61.80L90.01 61.80Q90.07 62.03 90.28 62.27Q90.48 62.50 90.54 63.03L90.54 63.03Q90.30 63.09 90.28 63.26Q90.25 63.44 90.25 63.67Q90.25 63.91 90.25 64.14Q90.25 64.38 90.07 64.49L90.07 64.49Q90.36 64.96 90.25 65.55Q90.13 66.14 90.25 66.78L90.25 66.78Q90.19 67.95 90.36 68.89Q90.54 69.83 91.07 70.53L91.07 70.53Q91.48 70.53 91.80 70.68Q92.12 70.82 92.41 70.65L92.41 70.65Q94.11 71.12 96.02 70.79Q97.92 70.47 99.80 70.35ZM91.13 29.75L91.13 29.75Q90.71 29.69 90.42 30.01Q90.13 30.33 89.89 30.22L89.89 30.22Q90.19 30.51 90.30 30.57Q90.42 30.63 90.66 30.63L90.66 30.63Q90.60 30.33 90.89 30.25Q91.18 30.16 91.13 29.75ZM89.89 29.34L89.89 29.34Q89.43 29.57 89.37 29.81L89.37 29.81Q89.60 29.92 89.72 29.75Q89.84 29.57 89.89 29.34ZM89.31 30.45L89.31 30.45Q88.78 30.74 88.84 30.98Q88.90 31.21 89.19 31.33L89.19 31.33Q89.13 31.04 89.10 30.83Q89.07 30.63 89.31 30.45ZM83.92 29.51L83.92 29.51Q83.74 29.40 83.48 29.31Q83.21 29.22 83.10 29.34L83.10 29.34Q83.39 29.63 83.65 29.69Q83.92 29.75 83.92 29.51ZM89.19 30.28L89.19 30.28Q88.25 30.16 87.20 30.10L87.20 30.10Q87.14 30.39 87.35 30.39Q87.55 30.39 87.49 30.69L87.49 30.69L86.91 30.28Q86.91 30.74 86.35 30.95Q85.79 31.15 85.32 31.04L85.32 31.04Q85.21 31.21 85.12 31.48Q85.03 31.74 84.62 31.56L84.62 31.56Q84.21 31.92 84.04 32.00Q83.86 32.09 83.68 32.03L83.68 32.03Q83.21 32.68 83.01 32.82Q82.80 32.97 82.57 32.85L82.57 32.85Q82.57 33.21 82.37 33.44Q82.16 33.67 82.28 33.97L82.28 33.97Q82.57 33.97 82.75 33.76Q82.92 33.56 83.21 33.67L83.21 33.67Q83.33 33.44 83.45 33.26Q83.57 33.09 83.86 33.09L83.86 33.09Q83.74 33.26 84.04 33.26Q84.33 33.26 84.45 33.38L84.45 33.38Q84.97 32.50 85.35 32.50Q85.73 32.50 86.14 32.33L86.14 32.33Q86.09 31.86 86.20 31.71Q86.32 31.56 86.55 31.51L86.55 31.51Q86.67 31.80 87.08 31.98L87.08 31.98Q87.43 31.39 87.58 31.33Q87.73 31.27 87.79 31.10L87.79 31.10Q87.84 30.92 88.02 30.80Q88.20 30.69 88.37 30.54Q88.55 30.39 88.72 30.28Q88.90 30.16 89.19 30.28ZM85.79 30.16L86.32 30.28Q86.50 30.10 86.70 29.72Q86.91 29.34 86.32 29.34L86.32 29.34Q85.85 29.69 85.82 29.57Q85.79 29.46 85.68 29.46L85.68 29.46Q85.44 29.57 85.41 29.84Q85.38 30.10 84.97 30.04L84.97 30.04Q84.68 30.28 84.53 30.42Q84.39 30.57 84.09 30.39L84.09 30.39Q83.63 30.92 83.63 30.86Q83.63 30.80 83.51 30.80L83.51 30.80Q83.39 30.98 83.19 31.07Q82.98 31.15 82.86 31.51L82.86 31.51Q82.39 31.86 82.37 32.03Q82.34 32.21 82.34 32.62L82.34 32.62Q82.57 32.50 82.75 32.39Q82.92 32.27 83.27 32.33L83.27 32.33Q83.10 31.62 83.33 31.65Q83.57 31.68 83.68 31.51L83.68 31.51Q83.92 31.86 83.98 31.74Q84.04 31.62 84.06 31.51Q84.09 31.39 84.18 31.30Q84.27 31.21 84.50 31.27L84.50 31.27Q85.03 31.04 84.91 30.74L84.91 30.74Q85.21 30.69 85.41 30.51Q85.62 30.33 85.79 30.16L85.79 30.16ZM91.07 31.21L91.07 31.21Q90.01 30.92 89.54 31.21L89.54 31.21Q89.13 31.45 88.96 31.33Q88.78 31.21 88.61 31.33L88.61 31.33Q88.43 31.86 88.25 32.03Q88.08 32.21 87.84 32.30Q87.61 32.39 87.46 32.47Q87.32 32.56 87.49 32.68L87.49 32.68Q86.85 32.74 86.91 32.85Q86.96 32.97 86.85 33.03L86.85 33.03Q85.91 33.26 85.91 33.15L85.91 33.15Q85.50 33.62 85.47 33.56Q85.44 33.50 85.32 33.62L85.32 33.62Q85.27 33.85 85.12 33.85Q84.97 33.85 84.77 33.79Q84.56 33.73 84.39 33.70Q84.21 33.67 84.04 33.85L84.04 33.85Q84.45 34.32 84.45 34.49L84.45 34.49Q83.92 34.26 83.60 34.55Q83.27 34.85 82.98 34.85L82.98 34.85Q82.92 35.08 82.78 35.40Q82.63 35.73 82.51 36.02L82.51 36.02Q82.57 36.31 82.57 36.66Q82.57 37.01 82.75 37.07L82.75 37.07Q82.98 36.96 83.10 36.81Q83.21 36.66 83.45 36.49L83.45 36.49Q83.63 36.66 83.60 36.84Q83.57 37.01 83.68 37.13L83.68 37.13Q84.27 36.55 84.04 36.60Q83.80 36.66 83.74 36.49L83.74 36.49Q84.33 35.96 84.39 36.11Q84.45 36.25 84.56 36.31L84.56 36.31Q84.50 36.02 84.74 35.93Q84.97 35.84 85.09 35.61L85.09 35.61Q85.21 35.84 85.21 35.99Q85.21 36.14 85.38 36.43L85.38 36.43Q85.32 35.78 85.30 35.61Q85.27 35.43 85.27 35.31L85.27 35.31Q85.73 35.49 85.94 35.61Q86.14 35.73 86.26 35.49L86.26 35.49Q85.85 34.85 86.23 34.85Q86.61 34.85 86.85 35.02L86.85 35.02Q86.67 34.32 87.02 34.32Q87.38 34.32 87.55 34.03L87.55 34.03Q88.02 33.97 88.02 33.79Q88.02 33.62 87.96 33.50L87.96 33.50Q88.66 33.32 88.63 33.41Q88.61 33.50 88.72 33.50L88.72 33.50Q88.72 33.32 89.07 33.29Q89.43 33.26 89.48 33.26L89.48 33.26Q89.13 33.62 89.05 33.67Q88.96 33.73 88.84 33.79L88.84 33.79Q89.60 33.79 89.72 33.76Q89.84 33.73 90.13 33.73L90.13 33.73Q90.25 33.44 90.57 33.26Q90.89 33.09 90.60 32.68L90.60 32.68Q90.19 32.50 90.28 32.39Q90.36 32.27 90.25 32.03L90.25 32.03Q90.54 31.92 90.66 31.62Q90.77 31.33 91.07 31.21ZM82.86 29.34L82.86 29.34Q82.57 29.46 82.22 29.43Q81.87 29.40 81.57 29.51L81.57 29.51Q81.69 29.75 81.63 29.84Q81.57 29.92 81.63 30.16L81.63 30.16Q81.98 30.22 82.16 30.07Q82.34 29.92 82.75 30.04L82.75 30.04Q82.86 29.81 82.83 29.66Q82.80 29.51 82.86 29.34ZM80.99 32.91L80.99 32.91Q80.70 32.44 80.55 32.71Q80.40 32.97 80.34 33.26L80.34 33.26Q80.64 33.26 80.99 32.91ZM90.01 43.11L90.01 43.11Q89.54 43.46 89.48 43.49Q89.43 43.52 89.43 43.64L89.43 43.64Q89.72 43.52 89.92 43.43Q90.13 43.34 90.01 43.11ZM90.83 38.01L90.83 38.01Q90.54 37.60 90.60 37.19Q90.66 36.78 90.60 36.14L90.60 36.14Q90.71 35.84 90.63 35.61Q90.54 35.37 90.66 35.08L90.66 35.08Q90.13 34.79 89.84 35.20L89.84 35.20Q89.66 35.55 89.43 35.61Q89.19 35.67 88.90 35.67L88.90 35.67Q89.13 35.96 88.81 36.11Q88.49 36.25 88.66 36.49L88.66 36.49Q88.37 36.78 87.96 37.10Q87.55 37.42 87.14 37.48L87.14 37.48Q87.32 37.37 87.38 37.19Q87.43 37.01 87.61 36.78L87.61 36.78Q87.90 36.84 87.90 36.55Q87.90 36.25 88.02 36.14L88.02 36.14Q88.61 35.84 88.72 35.75Q88.84 35.67 88.90 35.52Q88.96 35.37 89.07 35.29Q89.19 35.20 89.48 35.20L89.48 35.20Q89.89 34.73 90.19 34.64Q90.48 34.55 90.54 34.26L90.54 34.26Q90.42 34.14 90.33 34.00Q90.25 33.85 89.95 33.91L89.95 33.91Q89.84 34.67 89.19 34.79Q88.55 34.90 88.02 34.90L88.02 34.90Q88.02 35.14 87.87 35.31Q87.73 35.49 87.38 35.43L87.38 35.43Q87.43 35.78 87.08 35.67Q86.73 35.55 86.67 35.78L86.67 35.78Q86.20 35.90 86.12 35.93Q86.03 35.96 86.09 36.08L86.09 36.08Q85.91 36.84 85.68 36.90Q85.44 36.96 85.18 36.93Q84.91 36.90 84.68 36.90Q84.45 36.90 84.45 37.13L84.45 37.13L85.21 37.13Q84.80 37.31 84.42 37.48Q84.04 37.66 83.57 37.83L83.57 37.83Q83.57 38.36 82.86 38.48L82.86 38.48Q82.92 38.95 82.83 39.24Q82.75 39.53 83.10 39.83L83.10 39.83Q83.51 39.30 83.57 39.30L83.57 39.30Q83.74 39.53 83.95 39.48Q84.15 39.42 84.45 39.48L84.45 39.48L83.86 39.06Q84.21 39.18 84.27 39.01Q84.33 38.83 84.56 38.77L84.56 38.77Q84.62 38.48 84.80 38.39Q84.97 38.30 85.15 38.27Q85.32 38.24 85.47 38.16Q85.62 38.07 85.68 37.83L85.68 37.83Q86.26 37.42 86.85 37.25L86.85 37.25Q86.55 37.72 86.73 37.72Q86.91 37.72 86.85 37.89L86.85 37.89Q86.67 37.83 86.47 37.75Q86.26 37.66 86.20 37.95L86.20 37.95Q86.85 38.19 87.29 37.95Q87.73 37.72 88.20 37.83L88.20 37.83Q88.08 38.19 87.61 38.19Q87.14 38.19 87.02 38.48L87.02 38.48Q86.73 38.65 86.64 38.71Q86.55 38.77 86.32 38.71L86.32 38.71Q86.14 39.06 85.88 39.01Q85.62 38.95 85.62 39.24L85.62 39.24Q84.68 39.89 84.30 40.21Q83.92 40.53 83.27 40.71L83.27 40.71Q83.51 41.06 83.27 41.20Q83.04 41.35 83.21 41.82L83.21 41.82Q83.39 42.40 83.33 42.40Q83.27 42.40 83.21 42.46L83.21 42.46Q83.68 42.58 83.77 42.46Q83.86 42.35 84.04 42.46L84.04 42.46Q83.86 41.94 83.92 41.82Q83.98 41.70 84.21 41.70L84.21 41.70Q84.86 41.82 84.83 41.61Q84.80 41.41 84.91 41.41L84.91 41.41Q85.50 41.29 85.82 41.09Q86.14 40.88 86.44 41.17L86.44 41.17Q86.44 40.94 86.73 41.00Q87.02 41.06 87.14 40.94L87.14 40.94Q87.67 40.53 87.99 40.18Q88.31 39.83 88.84 39.94L88.84 39.94Q89.13 39.48 89.51 39.77Q89.89 40.06 90.19 39.94L90.19 39.94Q90.07 40.06 90.04 40.30Q90.01 40.53 89.89 40.65L89.89 40.65Q89.60 41.06 89.31 41.17Q89.02 41.29 88.72 41.17L88.72 41.17Q88.61 41.35 88.31 41.76Q88.02 42.17 87.73 41.82L87.73 41.82Q87.90 42.05 88.08 42.32Q88.25 42.58 88.55 42.29L88.55 42.29Q88.31 42.76 87.96 42.99Q87.61 43.23 87.23 43.49Q86.85 43.75 86.44 43.93Q86.03 44.10 85.56 43.93L85.56 43.93Q85.56 44.16 85.62 44.31Q85.68 44.46 85.79 44.63L85.79 44.63Q85.15 44.69 84.91 44.90Q84.68 45.10 84.50 45.31Q84.33 45.51 84.12 45.63Q83.92 45.74 83.57 45.57L83.57 45.57Q83.51 45.92 83.45 46.07Q83.39 46.21 83.21 46.15L83.21 46.15Q83.10 46.45 83.07 46.71Q83.04 46.98 82.98 47.27L82.98 47.27Q83.16 47.21 83.33 47.15Q83.51 47.09 83.80 47.15L83.80 47.15Q83.86 46.92 84.09 46.83Q84.33 46.74 84.45 46.45L84.45 46.45Q85.09 45.86 85.32 45.63Q85.56 45.39 86.09 45.45L86.09 45.45Q86.09 45.16 86.32 45.07Q86.55 44.98 86.61 44.75L86.61 44.75Q86.79 44.87 87.02 45.04Q87.26 45.22 87.43 44.98L87.43 44.98Q87.38 44.81 87.20 44.75Q87.02 44.69 86.91 44.57L86.91 44.57Q87.26 44.40 87.61 44.10Q87.96 43.81 88.31 43.93L88.31 43.93Q88.84 43.34 88.90 43.28L88.90 43.28Q88.78 42.99 88.84 42.87Q88.90 42.76 89.25 42.70L89.25 42.70Q88.72 42.35 88.81 42.20Q88.90 42.05 89.02 41.99L89.02 41.99Q89.31 41.99 89.57 41.88Q89.84 41.76 90.13 41.88L90.13 41.88Q90.54 41.58 90.57 41.20Q90.60 40.82 90.19 40.53L90.19 40.53Q90.60 39.65 90.51 39.04Q90.42 38.42 90.83 38.01ZM89.84 45.33L90.13 44.81Q89.60 44.87 89.51 44.87Q89.43 44.87 89.37 44.75L89.37 44.75Q89.25 44.98 89.54 45.04Q89.84 45.10 89.84 45.33L89.84 45.33ZM85.56 42.17L85.97 42.11Q85.91 41.82 85.79 41.70Q85.68 41.58 85.73 41.29L85.73 41.29Q85.27 41.41 85.03 41.70L85.03 41.70Q85.73 41.70 85.59 41.82Q85.44 41.94 85.56 42.17L85.56 42.17ZM89.02 44.98L89.02 44.98Q88.66 45.10 88.31 44.92L88.31 44.92Q89.02 45.22 89.02 44.98ZM90.01 45.57L90.01 45.57Q89.66 45.39 89.43 45.63Q89.19 45.86 88.72 45.80L88.72 45.80Q89.13 46.21 89.25 46.10Q89.37 45.98 89.48 46.15L89.48 46.15Q89.43 45.86 89.75 45.89Q90.07 45.92 90.01 45.57ZM87.49 41.58L87.49 41.58Q87.08 41.35 86.94 41.47Q86.79 41.58 86.38 41.53L86.38 41.53Q86.03 41.99 86.14 42.14Q86.26 42.29 86.14 42.29L86.14 42.29Q85.50 42.11 85.24 42.46Q84.97 42.81 84.50 42.81L84.50 42.81Q84.45 43.40 83.95 43.61Q83.45 43.81 83.10 44.22L83.10 44.22Q83.51 44.75 83.77 44.60Q84.04 44.46 84.33 44.34L84.33 44.34Q84.21 43.87 84.45 43.78Q84.68 43.69 84.74 43.40L84.74 43.40Q85.38 43.34 85.41 43.46Q85.44 43.58 85.62 43.52L85.62 43.52Q85.68 42.87 85.88 42.87Q86.09 42.87 86.20 42.76L86.20 42.76L86.91 42.11Q87.49 41.99 87.43 41.88Q87.38 41.76 87.49 41.58ZM90.25 48.56L90.25 48.56Q90.25 48.21 90.30 47.88Q90.36 47.56 90.25 47.39L90.25 47.39Q89.95 47.62 89.69 47.71Q89.43 47.80 89.37 47.97L89.37 47.97Q89.54 48.26 89.48 48.47Q89.43 48.67 89.19 48.73L89.19 48.73Q88.72 49.08 88.72 49.20L88.72 49.20Q88.96 49.08 89.10 49.03Q89.25 48.97 89.43 49.08L89.43 49.08Q89.54 48.85 89.81 48.79Q90.07 48.73 90.25 48.56ZM88.31 45.45L88.31 45.45Q88.20 45.33 87.96 45.45Q87.73 45.57 87.55 45.39L87.55 45.39Q87.43 45.74 87.05 45.86Q86.67 45.98 86.38 46.27L86.38 46.27Q86.14 46.56 85.71 46.71Q85.27 46.86 85.38 47.15L85.38 47.15Q84.86 47.44 84.71 47.56Q84.56 47.68 84.39 47.80L84.39 47.80Q84.04 47.80 83.89 47.97Q83.74 48.15 83.63 48.32Q83.51 48.50 83.36 48.67Q83.21 48.85 82.92 48.85L82.92 48.85Q82.92 49.14 83.01 49.26Q83.10 49.38 83.10 49.61L83.10 49.61Q83.51 49.44 83.54 49.47Q83.57 49.49 83.74 49.44L83.74 49.44Q83.74 49.14 83.89 49.00Q84.04 48.85 84.27 48.76Q84.50 48.67 84.71 48.62Q84.91 48.56 85.09 48.44L85.09 48.44Q85.32 48.21 85.41 47.97Q85.50 47.74 85.62 47.62L85.62 47.62Q85.73 47.74 85.85 47.85Q85.97 47.97 86.14 48.09L86.14 48.09Q86.09 47.33 86.32 47.03Q86.55 46.74 87.08 46.74L87.08 46.74Q87.55 46.92 87.76 46.95Q87.96 46.98 87.96 46.80L87.96 46.80Q87.73 46.51 87.52 46.45Q87.32 46.39 87.43 46.27L87.43 46.27Q87.84 46.56 88.14 46.56L88.14 46.56Q88.14 45.69 88.22 45.72Q88.31 45.74 88.31 45.45ZM90.07 51.14L90.07 51.14Q89.66 50.49 89.57 50.58Q89.48 50.67 89.25 50.61L89.25 50.61Q89.43 50.90 89.22 51.08Q89.02 51.25 89.31 51.43L89.31 51.43Q88.78 51.60 88.20 51.49L88.20 51.49Q88.08 51.72 88.02 51.96Q87.96 52.19 87.84 52.31L87.84 52.31Q88.78 52.01 89.07 52.01Q89.37 52.01 89.84 52.13L89.84 52.13Q89.72 51.84 89.84 51.63Q89.95 51.43 90.07 51.14ZM90.13 46.45L90.13 46.45Q89.89 46.33 89.72 46.56Q89.54 46.80 89.31 46.92L89.31 46.92Q89.07 46.92 88.84 46.83Q88.61 46.74 88.37 46.92L88.37 46.92Q87.96 47.44 87.84 47.50Q87.73 47.56 87.67 47.68L87.67 47.68Q87.55 47.91 87.29 48.12Q87.02 48.32 86.55 48.21L86.55 48.21Q86.32 48.44 86.17 48.59Q86.03 48.73 85.91 48.94Q85.79 49.14 85.62 49.29Q85.44 49.44 85.15 49.38L85.15 49.38Q84.74 49.79 84.33 50.08Q83.92 50.37 83.57 50.73Q83.21 51.08 82.98 51.49Q82.75 51.90 82.92 52.54L82.92 52.54Q85.03 51.02 86.55 49.49L86.55 49.49Q87.08 49.38 87.40 49.03Q87.73 48.67 87.84 48.38L87.84 48.38Q88.49 48.09 88.46 48.03Q88.43 47.97 88.55 47.91L88.55 47.91Q88.96 47.85 89.05 47.77Q89.13 47.68 89.25 47.56L89.25 47.56Q89.43 47.27 89.72 47.09Q90.01 46.92 90.13 46.45ZM89.60 50.31L89.60 50.31Q89.31 50.26 89.40 50.08Q89.48 49.90 89.37 49.61L89.37 49.61Q89.31 49.85 88.61 49.79L88.61 49.79Q88.49 50.20 88.49 50.26Q88.49 50.31 88.31 50.37L88.31 50.37Q88.02 50.49 87.90 50.46Q87.79 50.43 87.67 50.49L87.67 50.49Q87.02 51.14 86.44 51.08L86.44 51.08Q85.38 52.01 84.36 52.83Q83.33 53.65 82.86 54.77L82.86 54.77Q83.57 55.00 83.63 54.89Q83.68 54.77 83.80 54.71L83.80 54.71Q84.33 54.53 84.62 54.50Q84.91 54.48 84.74 54.18L84.74 54.18Q84.62 54.18 84.42 54.33Q84.21 54.48 84.09 54.36L84.09 54.36Q84.50 54.12 84.80 53.74Q85.09 53.36 85.50 53.36L85.50 53.36Q85.85 53.07 85.82 52.95Q85.79 52.83 86.09 52.89L86.09 52.89Q86.55 52.13 86.96 52.13Q87.38 52.13 87.67 51.84L87.67 51.84Q87.84 51.43 87.90 51.22Q87.96 51.02 88.31 50.90L88.31 50.90Q88.49 50.90 88.55 50.67Q88.61 50.43 88.84 50.26L88.84 50.26Q89.13 50.14 89.31 50.29Q89.48 50.43 89.60 50.31ZM59.84 31.68L59.84 31.68Q59.78 31.27 59.72 30.95Q59.66 30.63 59.48 30.33L59.48 30.33Q59.19 30.74 59.37 30.77Q59.54 30.80 59.54 31.04L59.54 31.04Q59.48 31.39 59.28 31.54Q59.07 31.68 58.81 31.83Q58.55 31.98 58.31 32.15Q58.08 32.33 58.08 32.68L58.08 32.68Q58.55 32.15 59.13 32.33L59.13 32.33Q59.13 32.03 59.40 31.95Q59.66 31.86 59.84 31.68ZM57.67 32.91L57.67 32.91Q57.43 32.80 57.11 33.03Q56.79 33.26 56.91 33.50L56.91 33.50Q57.38 33.26 57.49 33.18Q57.61 33.09 57.67 32.91ZM61.07 35.84L61.07 35.84Q60.60 35.61 60.22 36.05Q59.84 36.49 59.72 36.96L59.72 36.96Q59.95 36.90 60.10 36.81Q60.25 36.72 60.54 36.78L60.54 36.78Q60.54 36.37 60.83 36.31Q61.13 36.25 61.07 35.84ZM89.78 56.00L89.78 56.00Q88.96 56.23 88.93 55.91Q88.90 55.59 88.66 55.59L88.66 55.59Q88.78 55.30 88.93 55.24Q89.07 55.18 89.37 55.12L89.37 55.12Q89.25 54.83 89.43 54.74Q89.60 54.65 89.60 54.36L89.60 54.36Q89.60 53.65 89.43 53.57Q89.25 53.48 89.25 53.19L89.25 53.19Q88.96 53.42 88.66 53.39Q88.37 53.36 88.02 53.48L88.02 53.48Q88.43 54.06 88.61 54.01Q88.78 53.95 88.84 54.24L88.84 54.24Q88.61 54.18 88.43 54.30Q88.25 54.42 88.08 54.50Q87.90 54.59 87.76 54.59Q87.61 54.59 87.55 54.30L87.55 54.30Q87.32 54.71 87.29 54.89Q87.26 55.06 87.49 55.12L87.49 55.12Q87.20 55.18 86.61 55.18L86.61 55.18Q86.44 55.47 86.61 55.71Q86.79 55.94 86.44 56.06L86.44 56.06Q86.38 55.53 85.85 55.35L85.85 55.35Q86.50 54.89 86.50 55.00Q86.50 55.12 86.67 55.06L86.67 55.06Q86.67 54.65 86.61 54.30Q86.55 53.95 87.02 53.77L87.02 53.77Q87.43 53.83 87.52 53.71Q87.61 53.60 87.73 53.48L87.73 53.48Q87.49 53.36 87.29 53.36Q87.08 53.36 86.79 53.36L86.79 53.36Q86.67 53.89 86.26 54.09Q85.85 54.30 85.56 54.59L85.56 54.59Q85.09 55.00 84.97 55.09Q84.86 55.18 84.56 55.12L84.56 55.12Q84.45 55.35 84.39 55.56Q84.33 55.76 83.92 55.71L83.92 55.71Q83.68 56.12 83.39 56.47Q83.10 56.82 82.80 57.11L82.80 57.11Q82.92 57.40 82.86 57.81Q82.80 58.23 82.57 58.46L82.57 58.46Q82.63 59.28 82.78 59.66Q82.92 60.04 82.63 60.33L82.63 60.33Q82.92 60.51 83.07 60.51Q83.21 60.51 83.39 60.45L83.39 60.45Q83.92 60.28 84.12 59.90Q84.33 59.51 84.68 59.69L84.68 59.69Q84.50 60.04 84.42 60.33Q84.33 60.63 83.92 60.57L83.92 60.57Q83.80 60.86 83.65 61.04Q83.51 61.21 83.21 61.10L83.21 61.10Q82.80 61.92 82.66 62.44Q82.51 62.97 82.63 63.44L82.63 63.44Q82.98 63.21 83.42 63.03Q83.86 62.85 84.33 62.62L84.33 62.62Q85.03 62.27 85.44 62.06Q85.85 61.86 85.97 62.27L85.97 62.27Q85.79 62.44 85.50 62.53Q85.21 62.62 85.03 62.80L85.03 62.80Q84.68 63.21 84.77 63.23Q84.86 63.26 84.74 63.38L84.74 63.38Q84.50 63.32 84.39 63.41Q84.27 63.50 84.09 63.38L84.09 63.38Q83.57 64.03 83.16 63.97L83.16 63.97Q83.21 64.44 82.95 64.55Q82.69 64.67 82.57 64.85L82.57 64.85Q82.51 65.14 82.57 65.29Q82.63 65.43 82.57 65.73L82.57 65.73Q82.92 66.08 82.92 66.37L82.92 66.37Q83.51 66.19 83.86 65.84L83.86 65.84Q83.63 66.14 83.42 66.31Q83.21 66.49 83.07 66.72Q82.92 66.96 82.78 67.22Q82.63 67.48 82.39 67.60L82.39 67.60Q82.39 68.07 82.39 68.27Q82.39 68.48 82.10 68.77L82.10 68.77Q82.75 68.36 82.83 68.13Q82.92 67.89 83.39 67.95L83.39 67.95Q83.74 67.95 83.83 67.75Q83.92 67.54 84.39 67.72L84.39 67.72Q84.80 67.07 84.94 67.04Q85.09 67.01 85.15 66.90L85.15 66.90Q85.44 67.01 85.73 66.96Q86.03 66.90 86.09 67.37L86.09 67.37Q85.50 67.25 85.24 67.51Q84.97 67.78 84.50 67.78L84.50 67.78Q84.04 68.36 83.51 68.77Q82.98 69.18 82.34 69.59L82.34 69.59Q82.45 70.18 82.10 70.35Q81.75 70.53 81.93 70.94L81.93 70.94Q82.22 70.65 82.60 70.38Q82.98 70.12 83.33 70.06L83.33 70.06Q83.57 69.83 83.71 69.59Q83.86 69.36 84.09 69.24L84.09 69.24Q84.15 69.24 84.27 69.18Q84.39 69.12 84.56 69.09Q84.74 69.06 84.91 69.04Q85.09 69.01 85.09 68.83L85.09 68.83Q85.15 68.60 85.44 68.80Q85.73 69.01 85.62 69.36L85.62 69.36Q84.91 69.59 84.77 69.91Q84.62 70.24 84.21 70.35L84.21 70.35Q83.80 69.89 83.71 69.97Q83.63 70.06 83.51 70.12L83.51 70.12Q83.63 70.35 83.80 70.41Q83.98 70.47 84.15 70.59L84.15 70.59Q83.92 70.82 83.68 70.65Q83.45 70.47 83.33 70.59L83.33 70.59Q83.27 71.23 83.13 71.20Q82.98 71.17 83.10 71.35L83.10 71.35Q83.80 71.35 84.56 71.26Q85.32 71.17 85.73 70.82L85.73 70.82Q87.20 71.17 88.02 70.68Q88.84 70.18 89.66 70.00L89.66 70.00Q89.43 69.65 89.40 69.12Q89.37 68.60 89.25 68.24L89.25 68.24Q88.96 68.48 88.61 68.54L88.61 68.54Q88.08 68.48 88.05 68.39Q88.02 68.30 88.02 68.19L88.02 68.19Q87.43 68.19 87.29 68.30Q87.14 68.42 86.96 68.54Q86.79 68.65 86.64 68.74Q86.50 68.83 86.26 68.65L86.26 68.65Q85.73 68.89 85.59 68.83Q85.44 68.77 85.32 68.65L85.32 68.65Q85.56 68.54 85.85 68.39Q86.14 68.24 85.91 67.95L85.91 67.95Q86.44 68.01 86.85 68.13Q87.26 68.24 87.61 67.95L87.61 67.95Q88.02 67.42 88.20 67.51Q88.37 67.60 88.61 67.66L88.61 67.66Q88.72 67.48 88.93 67.51Q89.13 67.54 89.25 67.48L89.25 67.48Q89.37 67.31 89.34 66.93Q89.31 66.55 89.19 66.43L89.19 66.43Q88.90 66.49 88.81 66.55Q88.72 66.60 88.55 66.49L88.55 66.49Q88.43 66.78 88.08 66.90Q87.73 67.01 87.61 66.66L87.61 66.66Q87.84 66.78 87.93 66.55Q88.02 66.31 88.25 66.31L88.25 66.31Q88.08 66.25 87.84 66.22Q87.61 66.19 87.55 65.90L87.55 65.90Q87.79 65.67 87.81 65.46Q87.84 65.26 87.84 64.96L87.84 64.96Q87.20 65.02 87.20 65.02L87.20 65.02Q87.38 64.85 87.49 64.67Q87.61 64.49 87.79 64.38L87.79 64.38Q87.67 64.67 87.90 64.85Q88.14 65.02 88.43 65.08L88.43 65.08Q88.43 64.79 88.72 64.79Q89.02 64.79 89.02 64.49L89.02 64.49Q88.72 64.38 88.58 64.52Q88.43 64.67 88.20 64.67L88.20 64.67Q88.20 63.97 88.20 63.85L88.20 63.85Q88.14 63.79 87.58 63.85Q87.02 63.91 86.67 63.97L86.67 63.97Q86.44 64.32 86.09 64.64Q85.73 64.96 85.21 64.73L85.21 64.73Q85.56 64.44 85.62 64.52Q85.68 64.61 85.85 64.55L85.85 64.55Q85.85 64.08 85.88 63.79Q85.91 63.50 86.44 63.44L86.44 63.44Q86.44 63.21 86.61 62.97Q86.79 62.74 86.91 62.85L86.91 62.85Q86.67 63.50 86.67 63.65Q86.67 63.79 86.85 63.79L86.85 63.79Q87.20 63.62 87.38 63.59Q87.55 63.56 87.67 63.73L87.67 63.73Q87.49 62.97 87.67 62.91L87.67 62.91Q87.96 63.03 88.17 63.00Q88.37 62.97 88.55 63.21L88.55 63.21Q88.72 62.56 89.05 62.53Q89.37 62.50 89.31 62.09L89.31 62.09Q89.07 62.03 88.81 62.06Q88.55 62.09 88.25 62.09L88.25 62.09Q88.31 62.09 88.34 61.80Q88.37 61.51 88.66 61.56L88.66 61.56Q89.02 61.68 89.22 61.65Q89.43 61.62 89.31 61.33L89.31 61.33Q89.13 61.04 89.13 60.83Q89.13 60.63 89.02 60.51L89.02 60.51Q89.07 60.10 89.16 59.92Q89.25 59.75 89.37 59.40L89.37 59.40Q89.02 59.05 88.72 59.05L88.72 59.05Q88.96 58.69 88.99 58.55Q89.02 58.40 89.31 58.52L89.31 58.52Q89.19 58.17 89.34 58.08Q89.48 57.99 89.43 57.70L89.43 57.70Q88.96 57.64 88.72 57.76Q88.49 57.87 88.20 57.99L88.20 57.99Q88.08 57.52 88.40 57.52Q88.72 57.52 89.02 57.40L89.02 57.40Q89.60 56.82 89.54 56.47Q89.48 56.12 89.78 56.00ZM60.48 33.79L60.48 33.79Q60.07 33.50 59.84 33.67Q59.60 33.85 59.43 34.03Q59.25 34.20 59.02 34.35Q58.78 34.49 58.49 34.44L58.49 34.44Q58.37 34.67 58.22 34.85Q58.08 35.02 57.96 35.20L57.96 35.20Q57.79 35.26 57.46 35.37Q57.14 35.49 56.88 35.67Q56.61 35.84 56.44 36.11Q56.26 36.37 56.38 36.66L56.38 36.66Q56.67 36.55 56.73 36.34Q56.79 36.14 57.08 36.19L57.08 36.19Q57.38 35.84 57.58 35.64Q57.79 35.43 58.02 35.26L58.02 35.26Q58.78 34.90 59.37 34.64Q59.95 34.38 60.48 33.79ZM53.33 29.75L53.33 29.75Q53.10 29.69 52.75 29.84Q52.39 29.98 52.39 30.28L52.39 30.28Q52.69 30.22 52.89 30.04Q53.10 29.87 53.33 29.75ZM60.07 32.50L60.07 32.50Q59.13 32.56 58.28 33.09Q57.43 33.62 56.73 33.91L56.73 33.91Q56.14 34.55 55.56 34.90Q54.97 35.26 54.62 35.84L54.62 35.84Q54.91 36.43 54.77 36.40Q54.62 36.37 54.68 36.49L54.68 36.49Q55.56 36.08 56.29 35.52Q57.02 34.96 57.84 34.49L57.84 34.49Q58.37 34.38 58.63 33.94Q58.90 33.50 59.54 33.38L59.54 33.38Q60.07 32.91 60.07 32.50ZM89.07 66.02L89.07 66.02Q88.90 65.84 88.72 65.84Q88.55 65.84 88.37 65.90L88.37 65.90Q88.31 66.19 88.58 66.11Q88.84 66.02 89.07 66.02ZM55.79 31.27L56.38 31.39Q55.91 30.98 55.76 31.15Q55.62 31.33 55.27 31.39L55.27 31.39Q54.39 30.98 53.80 31.45L53.80 31.45Q53.86 32.09 53.60 32.00Q53.33 31.92 53.10 32.03L53.10 32.03Q53.04 32.33 53.27 32.39Q53.51 32.44 53.63 32.62L53.63 32.62Q53.98 33.26 54.04 33.18Q54.09 33.09 54.27 33.15L54.27 33.15Q54.50 32.80 54.74 32.44L54.74 32.44Q55.38 32.50 55.44 32.21Q55.50 31.92 55.79 32.03L55.79 32.03Q55.91 31.74 55.82 31.56Q55.73 31.39 55.79 31.27L55.79 31.27ZM60.83 34.73L60.83 34.73Q60.25 34.85 59.75 34.90Q59.25 34.96 59.19 35.43L59.19 35.43Q58.90 35.55 58.46 35.64Q58.02 35.73 57.96 36.14L57.96 36.14Q57.73 36.37 57.46 36.37Q57.20 36.37 56.91 36.49L56.91 36.49Q56.44 36.84 56.26 37.13Q56.09 37.42 55.62 37.48L55.62 37.48Q55.50 37.78 55.62 37.98Q55.73 38.19 55.68 38.54L55.68 38.54Q56.50 38.48 56.79 38.10Q57.08 37.72 57.73 37.60L57.73 37.60Q57.90 37.42 57.90 37.25Q57.90 37.07 58.08 36.96L58.08 36.96L58.72 36.96Q58.90 36.60 59.22 36.40Q59.54 36.19 59.87 35.96Q60.19 35.73 60.45 35.46Q60.71 35.20 60.83 34.73ZM59.25 37.13L59.25 37.13Q59.07 37.13 58.87 37.13Q58.66 37.13 58.55 37.01L58.55 37.01Q58.61 37.13 58.58 37.34Q58.55 37.54 58.66 37.66L58.66 37.66Q58.96 37.60 59.02 37.42Q59.07 37.25 59.25 37.13ZM55.21 33.97L55.21 33.97Q55.09 33.67 54.86 33.88Q54.62 34.08 54.50 34.38L54.50 34.38Q54.74 34.49 54.88 34.26Q55.03 34.03 55.21 33.97ZM61.83 39.06L61.83 39.06Q61.48 38.95 60.98 39.09Q60.48 39.24 60.25 39.36L60.25 39.36Q60.13 39.83 59.89 39.80Q59.66 39.77 59.43 39.94L59.43 39.94Q59.89 39.06 60.57 38.74Q61.24 38.42 61.77 38.07L61.77 38.07Q60.95 37.48 60.71 37.89Q60.48 38.30 59.89 38.42L59.89 38.42Q59.07 38.60 58.87 39.06Q58.66 39.53 58.31 39.77L58.31 39.77Q58.02 39.48 58.11 39.24Q58.20 39.01 58.46 38.83Q58.72 38.65 59.07 38.51Q59.43 38.36 59.66 38.24L59.66 38.24Q60.13 37.66 60.36 37.54L60.36 37.54Q60.60 37.37 60.86 37.19Q61.13 37.01 60.89 36.90L60.89 36.90Q60.89 37.31 60.54 37.19Q60.19 37.07 60.07 37.31L60.07 37.31Q59.89 37.60 59.63 37.60Q59.37 37.60 59.07 37.83L59.07 37.83Q58.84 38.13 58.55 38.22Q58.25 38.30 58.20 38.65L58.20 38.65Q58.02 38.54 57.67 38.74Q57.32 38.95 57.26 39.30L57.26 39.30Q56.85 39.30 56.73 39.53Q56.61 39.77 56.26 39.83L56.26 39.83Q56.79 40.24 57.02 39.91Q57.26 39.59 57.61 39.83L57.61 39.83Q57.20 40.53 57.02 40.65Q56.85 40.76 56.85 41.06L56.85 41.06Q57.02 41.00 57.23 40.85Q57.43 40.71 57.67 40.56Q57.90 40.41 58.14 40.35Q58.37 40.30 58.66 40.41L58.66 40.41Q58.72 40.12 58.93 40.00Q59.13 39.89 59.31 39.77L59.31 39.77Q59.48 40.24 59.84 40.18Q60.19 40.12 60.66 40.12L60.66 40.12Q60.83 39.59 61.10 39.24Q61.36 38.89 61.83 39.06ZM49.58 30.04L49.76 29.63Q49.46 29.51 49.14 29.60Q48.82 29.69 48.47 29.63L48.47 29.63Q48.59 29.92 48.91 29.95Q49.23 29.98 49.58 30.04L49.58 30.04ZM63.35 43.17L63.35 43.17Q62.88 43.11 62.53 43.28Q62.18 43.46 61.89 43.75L61.89 43.75Q61.48 44.16 61.42 44.25Q61.36 44.34 61.07 44.22L61.07 44.22Q61.42 44.63 61.62 44.34Q61.83 44.05 62.18 44.16L62.18 44.16Q62.30 43.87 62.71 43.66Q63.12 43.46 63.35 43.17ZM89.95 71.17L89.95 71.17Q89.60 70.88 89.46 70.88Q89.31 70.88 89.16 70.88Q89.02 70.88 88.90 70.94Q88.78 71.00 88.84 71.23L88.84 71.23Q89.37 71.23 89.60 71.23Q89.84 71.23 89.95 71.17ZM63.88 45.16L63.88 45.16Q63.35 45.16 63.23 45.22L63.23 45.22Q63.35 45.51 63.56 45.39Q63.76 45.28 63.88 45.16ZM61.77 42.99L61.77 42.99Q61.36 43.23 60.98 43.25Q60.60 43.28 60.60 43.75L60.60 43.75Q61.07 43.75 61.27 43.52Q61.48 43.28 61.77 42.99ZM62.18 39.36L62.18 39.36Q61.36 39.42 61.24 39.65Q61.13 39.89 60.83 40.00L60.83 40.00Q60.01 40.47 59.72 40.82Q59.43 41.17 59.13 41.17L59.13 41.17Q59.43 40.65 59.54 40.30L59.54 40.30Q58.72 40.65 58.02 40.82L58.02 40.82Q58.02 41.12 57.76 41.23Q57.49 41.35 57.55 41.58L57.55 41.58Q57.32 41.82 57.08 41.94Q56.85 42.05 57.02 42.35L57.02 42.35Q57.26 42.29 57.49 42.14Q57.73 41.99 57.96 41.88Q58.20 41.76 58.40 41.73Q58.61 41.70 58.78 41.88L58.78 41.88Q58.66 42.17 58.37 42.17Q58.08 42.17 57.84 42.23L57.84 42.23Q57.73 42.52 57.70 42.58Q57.67 42.64 57.84 42.87L57.84 42.87Q58.02 43.05 58.02 43.37Q58.02 43.69 57.73 43.69L57.73 43.69Q58.43 43.99 58.96 43.52Q59.48 43.05 60.07 42.58L60.07 42.58Q60.60 42.52 60.71 42.29Q60.83 42.05 61.01 41.88L61.01 41.88Q61.65 42.05 61.65 41.97Q61.65 41.88 61.71 41.76L61.71 41.76Q61.65 41.47 61.80 41.29Q61.95 41.12 62.12 40.94L62.12 40.94Q61.42 41.06 61.27 41.09Q61.13 41.12 60.95 41.17L60.95 41.17Q60.77 41.41 60.60 41.61Q60.42 41.82 60.07 41.82L60.07 41.82Q59.84 42.23 59.31 42.52L59.31 42.52Q59.66 41.70 60.01 41.53Q60.36 41.35 60.83 41.29L60.83 41.29Q61.13 40.76 61.74 40.50Q62.36 40.24 62.18 39.36ZM45.77 28.46L45.77 28.46Q45.83 28.17 45.51 28.20Q45.19 28.23 45.07 28.34L45.07 28.34Q45.19 28.46 45.77 28.46ZM64.35 47.27L64.64 46.80Q64.17 46.80 63.88 46.74Q63.59 46.68 63.47 47.15L63.47 47.15Q63.00 47.21 62.82 47.53Q62.65 47.85 62.12 47.80L62.12 47.80Q62.53 47.97 62.71 48.09Q62.88 48.21 63.00 48.09L63.00 48.09Q63.47 47.56 63.41 47.50Q63.35 47.44 63.41 47.33L63.41 47.33Q63.70 47.33 63.85 47.27Q64.00 47.21 64.35 47.27L64.35 47.27ZM60.13 44.98L60.13 44.98Q60.01 45.04 59.81 45.01Q59.60 44.98 59.48 45.10L59.48 45.10Q59.54 45.28 59.81 45.19Q60.07 45.10 60.13 44.98ZM60.66 44.05L60.66 44.05Q59.95 44.28 59.69 44.43Q59.43 44.57 59.19 44.81L59.19 44.81Q58.43 45.10 58.20 45.57L58.20 45.57Q58.84 45.69 59.07 45.28Q59.31 44.87 59.78 44.81L59.78 44.81Q59.78 44.51 60.19 44.46Q60.60 44.40 60.66 44.05ZM65.46 49.55L65.46 49.55Q65.46 49.32 65.40 49.11Q65.34 48.91 65.29 48.73L65.29 48.73Q64.88 48.85 64.61 48.85Q64.35 48.85 64.05 48.97L64.05 48.97Q64.41 48.73 64.58 48.59Q64.76 48.44 64.88 48.67L64.88 48.67Q64.76 48.26 64.85 48.18Q64.93 48.09 64.93 47.91L64.93 47.91Q64.41 47.62 64.32 47.59Q64.23 47.56 64.11 47.56L64.11 47.56Q63.82 48.03 63.73 48.23Q63.64 48.44 63.47 48.32L63.47 48.32Q62.53 48.44 62.30 48.67Q62.06 48.91 61.83 48.56L61.83 48.56Q61.83 47.85 62.00 47.71Q62.18 47.56 62.30 47.39L62.30 47.39Q63.12 47.03 63.35 46.62Q63.59 46.21 64.05 45.98L64.05 45.98Q63.82 45.92 63.50 46.04Q63.18 46.15 62.88 46.10L62.88 46.10Q62.77 46.80 62.47 46.95Q62.18 47.09 61.89 47.09L61.89 47.09Q61.65 46.27 61.42 46.42Q61.18 46.56 61.13 46.74L61.13 46.74Q60.54 46.74 60.57 46.86Q60.60 46.98 60.48 46.98L60.48 46.98Q60.83 46.39 60.89 46.45Q60.95 46.51 61.07 46.51L61.07 46.51Q61.13 45.98 61.27 45.83Q61.42 45.69 61.83 45.74L61.83 45.74Q61.71 46.27 61.86 46.33Q62.00 46.39 62.18 46.33Q62.36 46.27 62.56 46.15Q62.77 46.04 62.94 46.04L62.94 46.04Q62.82 45.98 62.59 45.89Q62.36 45.80 62.18 45.92L62.18 45.92Q62.30 45.63 62.44 45.42Q62.59 45.22 62.94 45.10L62.94 45.10Q63.35 44.63 63.41 44.46Q63.47 44.28 63.64 44.28L63.64 44.28Q63.53 44.05 63.41 44.05Q63.29 44.05 63.12 44.13Q62.94 44.22 62.74 44.31Q62.53 44.40 62.36 44.34L62.36 44.34Q61.77 44.81 61.71 45.10L61.71 45.10Q61.24 45.22 60.95 45.04Q60.66 44.87 60.36 44.75L60.36 44.75Q60.71 45.04 60.89 45.22L60.89 45.22Q60.30 45.69 59.98 46.10Q59.66 46.51 59.19 46.33L59.19 46.33Q59.19 46.68 58.99 46.95Q58.78 47.21 58.55 47.15L58.55 47.15Q58.61 47.44 58.52 47.68Q58.43 47.91 58.72 48.15L58.72 48.15Q59.07 48.03 59.22 47.77Q59.37 47.50 59.78 47.56L59.78 47.56Q60.71 47.62 61.30 47.68L61.30 47.68Q60.95 47.97 60.39 48.00Q59.84 48.03 59.54 48.09L59.54 48.09Q59.89 48.32 60.07 48.29Q60.25 48.26 60.25 48.44L60.25 48.44Q59.66 48.62 59.51 48.82Q59.37 49.03 59.25 49.26Q59.13 49.49 59.10 49.70Q59.07 49.90 59.31 50.08L59.31 50.08Q59.54 49.61 59.57 49.52Q59.60 49.44 59.72 49.44L59.72 49.44Q59.84 49.38 59.95 49.26Q60.07 49.14 60.25 48.97L60.25 48.97Q60.89 48.67 61.21 48.65Q61.54 48.62 61.42 48.44L61.42 48.44Q61.48 48.50 61.71 48.73Q61.95 48.97 62.06 49.08L62.06 49.08Q61.71 48.91 61.54 49.14Q61.36 49.38 61.13 49.38L61.13 49.38Q61.13 49.61 61.01 49.73Q60.89 49.85 60.83 50.02L60.83 50.02Q60.60 49.90 60.54 49.73Q60.48 49.55 60.42 49.38L60.42 49.38Q60.19 49.67 60.22 49.82Q60.25 49.96 60.30 50.20L60.30 50.20Q60.01 50.43 59.75 50.75Q59.48 51.08 59.54 51.49L59.54 51.49Q59.78 51.72 60.13 51.78L60.13 51.78Q60.42 51.66 60.57 51.40Q60.71 51.14 61.13 51.19L61.13 51.19Q61.13 50.90 61.30 50.84Q61.48 50.78 61.71 50.73L61.71 50.73Q61.65 51.08 61.45 51.14Q61.24 51.19 61.18 51.43L61.18 51.43Q61.71 51.37 62.12 51.43L62.12 51.43Q62.65 50.55 63.50 50.43Q64.35 50.31 64.76 49.73L64.76 49.73Q65.11 49.67 65.23 49.64Q65.34 49.61 65.46 49.55ZM59.84 46.10L59.84 46.10Q59.72 45.74 59.37 45.74Q59.02 45.74 58.78 45.80L58.78 45.80Q59.19 45.98 59.46 45.95Q59.72 45.92 59.84 46.10ZM67.04 53.54L67.04 53.54Q67.04 52.89 66.72 53.01Q66.40 53.13 65.99 53.13L65.99 53.13Q65.87 53.60 65.40 53.60L65.40 53.60Q64.99 53.77 64.96 53.92Q64.93 54.06 64.76 54.06L64.76 54.06Q64.99 54.36 64.70 54.48Q64.41 54.59 64.58 54.83L64.58 54.83Q65.05 54.42 65.72 54.12Q66.40 53.83 67.04 53.54ZM66.11 51.49L66.11 51.49Q65.70 50.96 65.37 51.14Q65.05 51.31 64.76 51.19L64.76 51.19Q64.93 50.90 65.23 50.84Q65.52 50.78 65.70 50.55L65.70 50.55Q65.52 49.90 65.14 50.05Q64.76 50.20 64.29 50.31L64.29 50.31Q63.12 50.78 62.41 51.90L62.41 51.90Q62.24 51.78 61.92 51.78Q61.59 51.78 61.59 52.07L61.59 52.07Q61.48 52.37 61.21 52.40Q60.95 52.42 60.83 52.66L60.83 52.66Q61.01 52.89 60.74 52.95Q60.48 53.01 60.36 53.30L60.36 53.30Q60.54 53.48 60.74 53.54Q60.95 53.60 60.83 53.89L60.83 53.89Q61.13 54.12 61.24 53.92Q61.36 53.71 61.77 53.77L61.77 53.77Q61.77 53.42 62.00 53.51Q62.24 53.60 62.47 53.60L62.47 53.60Q61.77 53.89 61.86 53.95Q61.95 54.01 61.89 54.24L61.89 54.24Q61.77 54.36 61.62 54.39Q61.48 54.42 61.30 54.53L61.30 54.53Q62.06 54.53 62.44 54.01Q62.82 53.48 63.64 53.36L63.64 53.36Q64.11 52.72 64.82 52.37Q65.52 52.01 66.11 51.49ZM60.89 52.13L61.42 51.96Q61.42 51.66 61.24 51.57Q61.07 51.49 60.83 51.43L60.83 51.43Q60.42 52.01 60.60 52.01Q60.77 52.01 60.89 52.13L60.89 52.13ZM65.17 53.36L65.17 53.36Q64.99 52.89 64.64 53.13Q64.29 53.36 64.05 53.30L64.05 53.30Q63.88 53.60 63.79 53.77Q63.70 53.95 63.59 54.06L63.59 54.06Q63.23 54.06 63.12 53.92Q63.00 53.77 62.88 53.89L62.88 53.89Q62.47 54.42 62.36 54.80Q62.24 55.18 61.77 55.30L61.77 55.30Q61.71 55.59 61.65 55.76Q61.59 55.94 61.65 56.23L61.65 56.23Q62.12 56.12 62.33 55.88Q62.53 55.65 62.77 55.35L62.77 55.35Q63.06 55.12 63.32 54.77Q63.59 54.42 64.05 54.30L64.05 54.30Q64.11 53.83 64.46 53.68Q64.82 53.54 65.17 53.36ZM67.86 55.18L67.86 55.18Q67.45 55.30 67.16 55.21Q66.87 55.12 66.75 55.47L66.75 55.47Q66.34 55.18 66.28 55.27Q66.22 55.35 66.11 55.47L66.11 55.47Q66.57 55.94 66.28 55.97Q65.99 56.00 65.70 56.00L65.70 56.00Q65.34 56.41 65.40 56.50Q65.46 56.58 65.40 56.76L65.40 56.76Q65.11 56.76 65.05 56.82Q64.99 56.88 64.76 56.76L64.76 56.76Q64.76 57.05 64.52 57.23Q64.29 57.40 64.05 57.58L64.05 57.58Q64.00 57.29 64.00 57.17Q64.00 57.05 64.11 56.94L64.11 56.94Q64.46 56.47 64.70 56.32Q64.93 56.17 65.23 56.12L65.23 56.12Q65.34 56.00 65.55 55.76Q65.75 55.53 65.96 55.30Q66.16 55.06 66.40 54.91Q66.63 54.77 66.93 54.94L66.93 54.94Q66.40 54.48 66.02 54.59Q65.64 54.71 65.70 55.00L65.70 55.00Q65.40 55.06 65.14 55.24Q64.88 55.41 64.64 55.59Q64.41 55.76 64.17 55.88Q63.94 56.00 63.70 55.94L63.70 55.94Q63.41 56.47 63.00 56.88Q62.59 57.29 61.95 56.94L61.95 56.94Q62.18 57.35 62.30 57.52Q62.41 57.70 62.30 58.17L62.30 58.17Q62.59 58.23 62.71 58.23Q62.82 58.23 63.06 58.34L63.06 58.34Q63.00 57.81 63.35 57.70L63.35 57.70Q63.82 57.52 63.85 57.70Q63.88 57.87 64.05 57.99L64.05 57.99Q64.35 57.87 64.55 57.93Q64.76 57.99 64.88 57.70L64.88 57.70Q64.99 57.81 65.23 57.76Q65.46 57.70 65.52 57.52L65.52 57.52Q65.23 56.99 65.34 56.97Q65.46 56.94 65.52 56.82L65.52 56.82Q66.11 56.64 66.46 56.82Q66.81 56.99 66.98 56.70L66.98 56.70Q66.75 56.58 66.63 56.64Q66.52 56.70 66.34 56.58L66.34 56.58Q66.87 56.06 67.25 55.88Q67.63 55.71 67.86 55.18ZM68.80 56.88L68.80 56.88Q68.68 56.64 68.42 56.76Q68.16 56.88 67.86 56.76L67.86 56.76Q67.80 57.40 67.51 57.40L67.51 57.40Q67.51 57.76 67.22 57.84Q66.93 57.93 66.69 58.05L66.69 58.05Q66.46 58.05 66.02 58.37Q65.58 58.69 65.23 58.81L65.23 58.81Q65.05 59.22 64.76 59.34Q64.46 59.46 64.64 59.92L64.64 59.92Q64.35 59.51 64.38 59.22Q64.41 58.93 64.82 59.05L64.82 59.05Q65.23 58.64 65.23 58.43Q65.23 58.23 65.52 58.34L65.52 58.34Q65.70 57.87 65.78 57.79Q65.87 57.70 65.96 57.64Q66.05 57.58 66.11 57.52Q66.16 57.46 66.05 57.29L66.05 57.29Q65.75 57.58 65.49 57.87Q65.23 58.17 64.64 58.11L64.64 58.11Q64.23 58.58 63.82 58.58L63.82 58.58Q63.82 59.05 63.53 59.16Q63.23 59.28 63.12 59.57L63.12 59.57Q63.47 59.98 63.62 59.92Q63.76 59.87 63.70 60.16L63.70 60.16Q64.17 60.04 64.38 60.13Q64.58 60.22 64.88 59.98L64.88 59.98Q65.17 59.69 65.40 59.48Q65.64 59.28 65.99 59.16L65.99 59.16Q66.52 58.93 66.60 58.64Q66.69 58.34 67.10 58.46L67.10 58.46Q67.22 58.17 67.45 57.99Q67.69 57.81 67.95 57.70Q68.21 57.58 68.45 57.40Q68.68 57.23 68.80 56.88ZM70.09 59.22L70.09 59.22Q69.97 59.10 69.91 58.87Q69.86 58.64 69.74 58.52L69.74 58.52Q69.09 58.64 68.80 59.07Q68.51 59.51 67.86 59.63L67.86 59.63Q67.57 59.75 67.37 59.84Q67.16 59.92 66.98 59.81L66.98 59.81Q66.93 59.57 67.19 59.48Q67.45 59.40 67.57 59.16L67.57 59.16Q66.87 59.34 66.52 59.66Q66.16 59.98 65.52 59.92L65.52 59.92Q65.52 60.22 65.31 60.28Q65.11 60.33 64.88 60.45L64.88 60.45Q64.99 60.86 64.55 61.04Q64.11 61.21 63.88 61.51L63.88 61.51Q64.00 61.92 64.11 61.95Q64.23 61.98 64.29 62.27L64.29 62.27Q64.70 62.09 65.02 61.89Q65.34 61.68 65.70 61.39L65.70 61.39Q66.16 60.86 66.22 60.74Q66.28 60.63 66.28 60.45L66.28 60.45Q67.04 60.16 67.10 60.01Q67.16 59.87 67.45 59.92L67.45 59.92Q67.16 60.51 66.93 60.66Q66.69 60.80 66.57 61.10L66.57 61.10Q67.04 61.21 67.42 60.77Q67.80 60.33 68.63 60.28L68.63 60.28Q68.74 59.81 69.27 59.69Q69.80 59.57 70.09 59.22ZM70.27 60.39L70.27 60.39Q69.74 59.87 69.62 59.92L69.62 59.92Q69.39 60.28 69.27 60.48Q69.15 60.69 68.92 60.86L68.92 60.86Q68.51 60.86 68.48 60.74Q68.45 60.63 68.33 60.57L68.33 60.57Q68.04 61.21 68.27 61.13Q68.51 61.04 68.39 61.21L68.39 61.21Q67.75 61.27 67.60 61.54Q67.45 61.80 67.16 61.74L67.16 61.74Q67.16 62.27 66.40 62.27L66.40 62.27Q66.16 62.56 65.87 62.77Q65.58 62.97 65.23 63.15L65.23 63.15Q64.88 63.91 65.05 64.03Q65.23 64.14 65.17 64.61L65.17 64.61Q65.46 64.73 65.64 64.58Q65.81 64.44 65.93 64.26L65.93 64.26Q66.16 64.38 66.16 64.58Q66.16 64.79 66.22 65.08L66.22 65.08Q66.34 65.08 66.60 65.11Q66.87 65.14 66.93 65.43L66.93 65.43Q66.69 65.55 66.46 65.70Q66.22 65.84 66.11 66.02L66.11 66.02Q66.16 66.43 66.25 66.90Q66.34 67.37 66.55 67.81Q66.75 68.24 66.96 68.65Q67.16 69.06 67.16 69.42L67.16 69.42Q67.98 68.77 68.07 67.83Q68.16 66.90 68.74 66.37L68.74 66.37Q68.74 65.37 69.15 64.55Q69.56 63.73 69.56 62.85L69.56 62.85Q69.86 62.15 69.97 61.92Q70.09 61.68 70.18 61.48Q70.27 61.27 70.30 61.10Q70.32 60.92 70.15 60.74L70.15 60.74Q69.74 61.45 69.86 61.48Q69.97 61.51 69.97 61.68L69.97 61.68Q69.33 62.09 69.09 62.27L69.09 62.27Q68.45 62.62 68.07 63.03Q67.69 63.44 67.22 63.62L67.22 63.62Q67.45 63.79 67.28 64.06Q67.10 64.32 66.98 64.44L66.98 64.44Q67.22 65.02 67.57 65.02L67.57 65.02Q66.93 65.14 66.81 64.85Q66.69 64.55 66.40 64.44L66.40 64.44Q66.34 64.14 66.55 64.03Q66.75 63.91 66.98 64.03L66.98 64.03Q66.63 63.38 66.81 63.35Q66.98 63.32 67.10 63.21L67.10 63.21Q67.16 63.09 67.39 63.00Q67.63 62.91 67.86 62.80L67.86 62.80Q68.27 62.15 68.21 62.09L68.21 62.09Q68.80 61.56 68.92 61.36Q69.04 61.15 69.39 61.10L69.39 61.10Q69.68 60.86 69.83 60.66Q69.97 60.45 70.27 60.39ZM89.89 32.80L89.89 32.80Q89.43 33.09 89.28 33.09Q89.13 33.09 89.02 32.80L89.02 32.80Q89.43 32.97 89.57 32.91Q89.72 32.85 89.89 32.80ZM89.25 37.66L89.84 37.83Q89.43 38.30 89.43 38.54L89.43 38.54Q89.19 38.07 89.25 37.98Q89.31 37.89 89.25 37.66L89.25 37.66ZM88.37 39.01L88.90 39.06Q88.49 39.18 88.17 39.27Q87.84 39.36 87.55 39.71L87.55 39.71Q87.38 39.06 87.73 39.06Q88.08 39.06 88.37 39.01L88.37 39.01ZM87.02 39.83L87.14 40.12Q87.26 40.24 86.91 40.44Q86.55 40.65 86.38 40.53L86.38 40.53Q86.61 39.94 86.82 39.97Q87.02 40.00 87.02 39.83L87.02 39.83ZM88.61 55.94L89.02 56.06Q88.72 56.23 88.46 56.50Q88.20 56.76 87.96 56.76L87.96 56.76Q88.31 56.35 88.34 56.15Q88.37 55.94 88.61 55.94L88.61 55.94ZM87.67 56.70L88.08 56.99Q87.96 57.29 87.81 57.43Q87.67 57.58 87.55 57.81L87.55 57.81Q87.43 57.40 87.49 57.20Q87.55 56.99 87.67 56.70L87.67 56.70ZM85.97 55.65L86.20 55.94Q85.73 56.12 85.47 56.50Q85.21 56.88 84.56 56.82L84.56 56.82L84.97 56.29Q84.80 56.23 84.86 56.03Q84.91 55.82 85.09 55.68Q85.27 55.53 85.53 55.50Q85.79 55.47 85.97 55.65L85.97 55.65ZM88.37 59.63L88.72 59.87Q88.14 59.98 88.02 60.04Q87.90 60.10 87.73 59.98L87.73 59.98Q88.14 60.04 88.37 59.63L88.37 59.63ZM87.55 58.05L87.55 58.05Q87.02 58.46 86.85 58.64Q86.67 58.81 86.38 58.58L86.38 58.58Q86.79 58.23 86.61 58.02Q86.44 57.81 86.85 57.76L86.85 57.76Q87.08 58.23 87.23 58.08Q87.38 57.93 87.55 58.05ZM87.49 59.81L87.49 59.81Q87.14 60.04 87.14 60.16Q87.14 60.28 86.96 60.28L86.96 60.28Q87.08 59.81 87.49 59.81ZM85.91 59.16L85.91 59.16Q85.21 59.57 85.21 59.98L85.21 59.98Q84.86 59.46 84.74 59.16L84.74 59.16Q85.09 59.28 85.35 59.05Q85.62 58.81 85.91 59.16ZM88.20 60.86L88.20 60.86Q87.67 61.10 87.43 60.98L87.43 60.98Q87.14 61.56 86.55 61.74Q85.97 61.92 85.38 61.98L85.38 61.98Q85.62 61.68 85.76 61.56Q85.91 61.45 85.79 61.21L85.79 61.21Q86.03 61.10 86.17 61.15Q86.32 61.21 86.44 60.92L86.44 60.92Q86.85 60.57 86.99 60.51Q87.14 60.45 87.02 60.39L87.02 60.39Q87.14 60.28 87.32 60.51Q87.49 60.74 87.61 60.86L87.61 60.86Q87.84 60.74 87.84 60.54Q87.84 60.33 87.73 60.22L87.73 60.22Q88.14 60.51 88.17 60.57Q88.20 60.63 88.20 60.86ZM87.02 65.14L87.14 65.37Q86.91 65.49 86.70 65.55Q86.50 65.61 86.26 65.73L86.26 65.73Q86.85 65.61 87.02 65.14L87.02 65.14ZM87.49 66.14L87.61 66.43Q87.14 66.25 86.85 66.43L86.85 66.43Q86.61 66.78 86.47 66.84Q86.32 66.90 86.20 66.84L86.20 66.84Q86.09 66.55 85.88 66.63Q85.68 66.72 85.38 66.78L85.38 66.78Q85.68 66.31 85.79 66.22Q85.91 66.14 86.14 66.14L86.14 66.14Q86.61 65.73 86.91 65.73L86.91 65.73L87.49 66.14ZM88.02 68.42L88.14 68.95Q87.73 69.42 87.67 69.24Q87.61 69.06 87.43 69.01L87.43 69.01Q87.67 68.54 87.79 68.42Q87.90 68.30 88.02 68.42L88.02 68.42ZM84.62 65.37L84.91 65.26Q85.03 65.43 84.94 65.49Q84.86 65.55 84.68 65.55Q84.50 65.55 84.30 65.58Q84.09 65.61 84.04 65.78L84.04 65.78Q83.57 65.61 83.57 65.20L83.57 65.20Q84.21 65.20 84.39 65.20Q84.56 65.20 84.62 65.37L84.62 65.37ZM63.70 49.03L63.70 49.03Q63.35 49.67 63.18 49.67Q63.00 49.67 63.06 49.44L63.06 49.44Q63.35 49.49 63.38 49.23Q63.41 48.97 63.70 49.03ZM64.58 52.31L64.58 52.31L64.05 51.90Q64.17 51.90 64.35 51.98Q64.52 52.07 64.58 52.31ZM62.65 50.08L62.65 50.08Q62.24 50.31 62.06 50.55L62.06 50.55Q61.89 50.31 62.15 50.14Q62.41 49.96 62.65 50.08ZM63.59 52.19L63.94 52.60Q63.18 52.83 63.00 53.30L63.00 53.30Q62.77 53.19 62.65 53.33Q62.53 53.48 62.18 53.36L62.18 53.36Q62.47 53.36 62.59 53.04Q62.71 52.72 63.00 52.54L63.00 52.54Q63.53 52.42 63.59 52.19L63.59 52.19ZM69.09 62.97L69.33 63.38Q69.15 63.56 68.92 63.47Q68.68 63.38 68.51 63.50L68.51 63.50Q68.74 63.38 68.92 63.29Q69.09 63.21 69.09 62.97L69.09 62.97ZM68.80 63.97L68.80 63.97Q68.10 64.20 68.21 64.26Q68.33 64.32 68.27 64.44L68.27 64.44Q68.10 64.55 67.86 64.52Q67.63 64.49 67.69 64.79L67.69 64.79Q67.34 64.26 67.80 64.08L67.80 64.08Q68.16 63.56 68.33 63.70Q68.51 63.85 68.80 63.97Z" fill="#fff"></path></svg>